<?xml version="1.0" encoding="UTF-8"?>
<svg version="1.1" xmlns="http://www.w3.org/2000/svg" width="400" height="300">
<path d="M0 0 C132 0 264 0 400 0 C400 99 400 198 400 300 C268 300 136 300 0 300 C0 201 0 102 0 0 Z " fill="#F9FBFB" transform="translate(0,0)"/>
<path d="M0 0 C2 1.875 2 1.875 3 4 C3 4.66 3 5.32 3 6 C4.2375 6.144375 5.475 6.28875 6.75 6.4375 C9.56504499 6.78688502 12.2701497 7.20379366 15 8 C15.28875 7.360625 15.5775 6.72125 15.875 6.0625 C17 4 17 4 19 3 C20.70702735 2.93003986 22.41668003 2.91559846 24.125 2.9375 C25.03507813 2.94652344 25.94515625 2.95554688 26.8828125 2.96484375 C27.93082031 2.98224609 27.93082031 2.98224609 29 3 C29.99 4.98 29.99 4.98 31 7 C30.34 7.66 29.68 8.32 29 9 C29 8.34 29 7.68 29 7 C25.03167142 8.87393294 22.7923939 11.05276927 20.71484375 14.94921875 C19.44756319 18.5848597 19.69034602 22.20673868 20 26 C17.6568787 25.74438677 15.32156597 25.40729228 13 25 C11.73762269 22.47524538 11.90143596 20.68799534 11.9375 17.875 C11.94652344 16.96492188 11.95554688 16.05484375 11.96484375 15.1171875 C11.98224609 14.06917969 11.98224609 14.06917969 12 13 C11.01 13.33 10.02 13.66 9 14 C6.77412414 18.79079242 6.75374887 23.21716342 6.875 28.375 C6.88402344 29.11105469 6.89304688 29.84710938 6.90234375 30.60546875 C6.92569856 32.4037888 6.96156164 34.20193911 7 36 C6.34 36 5.68 36 5 36 C5 40.29 5 44.58 5 49 C5.66 48.01 6.32 47.02 7 46 C14.75025483 44.84570673 22.23409238 48.48236185 29 52 C29.28545428 60.13544686 28.18396883 67.97649696 27 76 C27.93199219 75.54109375 28.86398438 75.0821875 29.82421875 74.609375 C46.47562725 66.54515368 63.97986655 60.24417409 82.46484375 66.015625 C96.54094609 71.48123022 106.47123749 82.52206224 113 96 C113 96.99 113 97.98 113 99 C113.66 99.33 114.32 99.66 115 100 C115.79793386 102.19868636 116.48988712 104.43637767 117.125 106.6875 C117.65480469 108.51861328 117.65480469 108.51861328 118.1953125 110.38671875 C118.9418635 113.7389502 119.1574381 116.58359319 119 120 C116.24229713 117.99439791 115.70874904 116.14545693 115.0625 112.9375 C114.42591207 109.64159774 114.42591207 109.64159774 111.875 107.5 C111.25625 107.335 110.6375 107.17 110 107 C110.0309375 108.9490625 110.0309375 108.9490625 110.0625 110.9375 C110.08399454 112.29165633 110.07148199 113.64756083 110 115 C109.67 115.33 109.34 115.66 109 116 C108.76924918 117.34747084 108.58846937 118.70377565 108.4375 120.0625 C108.293125 121.361875 108.14875 122.66125 108 124 C107.67 124 107.34 124 107 124 C106.67 118.06 106.34 112.12 106 106 C105.34 106 104.68 106 104 106 C103.65775391 106.82951172 103.65775391 106.82951172 103.30859375 107.67578125 C101.62457111 110.66680654 99.49456758 112.76971769 97.0625 115.1875 C96.18722656 116.06792969 95.31195313 116.94835937 94.41015625 117.85546875 C92 120 92 120 89 121 C90.65860601 116.71872325 93.78417856 113.95626884 97 110.8125 C97.5465625 110.26658203 98.093125 109.72066406 98.65625 109.15820312 C102.71851504 105.14074248 102.71851504 105.14074248 105 104 C103.02582866 94.30861345 99.85046964 86.2618636 91.48828125 80.47265625 C81.14866924 74.35329404 69.54838474 72.99617509 57.80126953 75.46142578 C52.66161737 76.83864158 47.85838443 78.85553425 43 81 C42.22575684 81.31614258 41.45151367 81.63228516 40.65380859 81.95800781 C31.126332 85.64868984 31.126332 85.64868984 24.4453125 92.87109375 C23.69465191 96.24906638 23.35836961 99.5589204 23 103 C22.32858079 105.97470288 21.48740345 108.88827314 20.625 111.8125 C20.3460791 112.85180664 20.3460791 112.85180664 20.06152344 113.91210938 C19.46775818 115.98780962 18.75149098 117.97622901 18 120 C17.77911115 120.69725441 17.55822229 121.39450882 17.33063984 122.11289215 C16.18775648 124.72296135 15.20833165 126.17000958 13 128 C7.63839129 129.22087372 2.28973113 129.01064188 -3.1730957 128.90820312 C-4.84868766 128.90594598 -6.52428752 128.9072143 -8.19987488 128.91174316 C-12.74558203 128.9140388 -17.28960075 128.86700504 -21.8349154 128.8111515 C-26.58607946 128.76114318 -31.33728219 128.7564419 -36.08866882 128.74694824 C-45.0845314 128.72208234 -54.07961627 128.65643244 -63.07513636 128.57615232 C-73.31678539 128.48673517 -83.55847154 128.44274777 -93.80041373 128.40258884 C-114.86737657 128.31896623 -135.9336393 128.17825133 -157 128 C-156.85961466 125.94372317 -156.7140738 123.88779795 -156.56640625 121.83203125 C-156.48592041 120.68710205 -156.40543457 119.54217285 -156.32250977 118.36254883 C-155.91410937 114.10448782 -155.0529402 110.14156477 -154 106 C-155.8871875 105.443125 -155.8871875 105.443125 -157.8125 104.875 C-167.72663322 101.53385904 -177.4523824 96.69797594 -182.5 87.16796875 C-186.80387175 77.44757659 -187.14799178 68.53936079 -187.09765625 58.0625 C-187.0962413 56.94182129 -187.09482635 55.82114258 -187.09336853 54.66650391 C-187.08780139 51.11097467 -187.07525498 47.55550998 -187.0625 44 C-187.05748075 41.579428 -187.05291859 39.158855 -187.04882812 36.73828125 C-187.03784272 30.82549906 -187.02113752 24.91275415 -187 19 C-186.34 19 -185.68 19 -185 19 C-183.37890625 20.64453125 -183.37890625 20.64453125 -181.5625 22.8125 C-179.14233027 25.72806941 -179.14233027 25.72806941 -176.41542053 28.3399353 C-174.5576128 30.5188503 -174.61694465 31.76493685 -174.59936523 34.60400391 C-174.58602646 35.53572418 -174.57268768 36.46744446 -174.5589447 37.42739868 C-174.55882889 38.43362274 -174.55871307 39.4398468 -174.55859375 40.4765625 C-174.54538589 41.51638275 -174.53217804 42.556203 -174.51856995 43.62753296 C-174.47761443 46.96004853 -174.45600705 50.29228958 -174.4375 53.625 C-174.41363158 56.93620059 -174.3853136 60.24714556 -174.34571838 63.55819702 C-174.32157901 65.61834858 -174.30654414 67.67863391 -174.30210876 69.73892212 C-174.22616489 76.82614089 -174.02032299 83.83482731 -170.125 89.9375 C-166.12371584 93.82109933 -162.76328201 94.29420308 -157.25 94.625 C-156.07953125 94.69976562 -154.9090625 94.77453125 -153.703125 94.8515625 C-152.36507812 94.92503906 -152.36507812 94.92503906 -151 95 C-150.8040625 94.05125 -150.608125 93.1025 -150.40625 92.125 C-148.45614445 83.09531079 -145.97608823 74.28678241 -143.125 65.5 C-142.80982422 64.49839844 -142.49464844 63.49679688 -142.16992188 62.46484375 C-139.2439464 53.65759895 -135.02645565 46.18997283 -128 40 C-127.50757813 39.55398437 -127.01515625 39.10796875 -126.5078125 38.6484375 C-114.59717127 28.74937123 -100.23447213 24.06959795 -85 25 C-69.71463991 26.46586497 -48.4332154 31.30333189 -37.98095703 43.3215332 C-33.01342897 50.32135115 -28.60027566 57.53125546 -24.375 65 C-23.7459375 66.09828125 -23.116875 67.1965625 -22.46875 68.328125 C-18.55996885 75.17254677 -14.74681458 82.0657006 -11 89 C0.19321205 66.59506531 0.19321205 66.59506531 3.21875 42.27734375 C2.99899344 38.98491963 3.33342241 36.2201579 4 33 C2.989375 32.896875 1.97875 32.79375 0.9375 32.6875 C-3.35396155 31.93819719 -6.20912529 31.12288984 -10 29 C-10.6875 26.4375 -10.6875 26.4375 -11 24 C-12.97511052 22.82220198 -12.97511052 22.82220198 -15 22 C-15.51600956 14.47772729 -15.80220312 8.67207219 -11.2890625 2.390625 C-8.28019894 -0.85530053 -4.12873272 -0.63324122 0 0 Z " fill="#3C5BFD" transform="translate(221,172)"/>
<path d="M0 0 C6.88408793 5.43480626 12.09719653 11.32641552 16.8046875 18.7109375 C17.37058594 19.58105469 17.93648437 20.45117188 18.51953125 21.34765625 C19.8046875 23.7109375 19.8046875 23.7109375 19.8046875 26.7109375 C22.79596518 26.29354992 25.41174375 25.88672813 28.1796875 24.6484375 C31.95570418 23.29986011 34.79259065 23.3873813 38.8046875 23.7109375 C40.8046875 24.8359375 40.8046875 24.8359375 41.8046875 26.7109375 C41.9921875 29.8984375 41.9921875 29.8984375 41.8046875 32.7109375 C42.4234375 32.8346875 43.0421875 32.9584375 43.6796875 33.0859375 C45.8046875 33.7109375 45.8046875 33.7109375 47.8046875 35.7109375 C48.27049109 39.82553585 48.22877712 42.01421884 46.0546875 45.5859375 C43.84307853 47.67467931 42.77718136 48.39245601 39.8046875 48.7109375 C40.04445312 49.86142578 40.04445312 49.86142578 40.2890625 51.03515625 C40.96849812 55.87870869 41.02840459 60.63810094 41.0546875 65.5234375 C41.085625 66.94366211 41.085625 66.94366211 41.1171875 68.39257812 C41.15356927 75.00041642 40.82526661 82.1152826 36.38769531 87.39770508 C33.63244854 89.68340409 31.04533238 89.8296366 27.6171875 89.7734375 C26.3590625 89.7528125 25.1009375 89.7321875 23.8046875 89.7109375 C23.6190625 91.66 23.6190625 91.66 23.4296875 93.6484375 C23.21875 95.86328125 23.21875 95.86328125 22.8046875 97.7109375 C20.8046875 98.7109375 20.8046875 98.7109375 18.36328125 97.93359375 C17.33332031 97.55074219 16.30335938 97.16789062 15.2421875 96.7734375 C7.07882399 94.11027743 -0.69180703 94.3443193 -9.1953125 94.7109375 C-10.655941 97.35832666 -11.1953125 98.60542084 -11.1953125 101.7109375 C-13.62387509 103.32997923 -15.75945624 104.48617292 -18.3984375 105.6640625 C-19.21441406 106.03660156 -20.03039062 106.40914063 -20.87109375 106.79296875 C-22.56841771 107.56307476 -24.26889748 108.32626809 -25.97265625 109.08203125 C-30.92396669 111.35947859 -34.85977417 113.79341288 -38.81152344 117.56542969 C-40.1953125 118.7109375 -40.1953125 118.7109375 -42.1953125 118.7109375 C-42.61792358 119.59483154 -42.61792358 119.59483154 -43.04907227 120.49658203 C-44.09260063 122.51251435 -45.24608992 124.27757207 -46.53515625 126.140625 C-50.0040431 131.6435236 -51.79324097 137.67271799 -53.7578125 143.8359375 C-54.34260376 145.62994995 -54.34260376 145.62994995 -54.93920898 147.46020508 C-57.53955167 155.49281165 -60.03732415 163.54679975 -62.1953125 171.7109375 C-75.08629913 172.39947685 -75.08629913 172.39947685 -78.8203125 169.9609375 C-84.35377837 164.71870667 -85.90411266 159.72204806 -86.34622192 152.11401367 C-86.3726052 149.29013779 -86.34126733 146.47200189 -86.29296875 143.6484375 C-86.28890631 141.531253 -86.28701926 139.4140634 -86.28710938 137.296875 C-86.27900238 133.99806442 -86.2576472 130.70164485 -86.19897461 127.40332031 C-85.30228456 114.77599455 -85.30228456 114.77599455 -89.26123047 103.27734375 C-91.46581323 101.11810501 -93.65675353 99.44236983 -96.1953125 97.7109375 C-96.1953125 97.0509375 -96.1953125 96.3909375 -96.1953125 95.7109375 C-96.8553125 95.7109375 -97.5153125 95.7109375 -98.1953125 95.7109375 C-108.849554 78.46244459 -114.00765544 60.99191588 -110.0078125 40.5859375 C-105.4351519 21.63903364 -94.35454264 5.59510569 -77.5703125 -4.6640625 C-52.53497443 -18.34376728 -23.23626052 -16.64602527 0 0 Z " fill="#C9D4EC" transform="translate(132.1953125,95.2890625)"/>
<path d="M0 0 C5.33830937 0.37685117 10.27841463 1.47013403 15.44946289 2.86669922 C16.49943876 3.1479493 16.49943876 3.1479493 17.57062626 3.43488121 C19.8727311 4.05297862 22.17267659 4.67873282 24.47265625 5.3046875 C26.10542629 5.74494893 27.73831253 6.18477966 29.37130737 6.62420654 C33.71070815 7.79355349 38.04818173 8.96989473 42.3851738 10.14813995 C45.06133433 10.87468354 47.73798705 11.59938343 50.41482544 12.32342529 C70.27259367 17.69475167 90.12942993 23.0727167 109.9375 28.625 C111.0855864 28.94473785 111.0855864 28.94473785 112.25686646 29.27093506 C114.34860289 29.85489098 116.43831541 30.44550203 118.52734375 31.0390625 C119.62812256 31.35053223 120.72890137 31.66200195 121.86303711 31.98291016 C125.43602318 33.14137074 128.65444308 34.27588075 132 36 C133 40 133 40 130 51 C129.67 60.9 129.34 70.8 129 81 C83.13 81 37.26 81 -10 81 C-10 71.1 -10 61.2 -10 51 C33.56 50.67 77.12 50.34 122 50 C107.48 46.04 92.96 42.08 78 38 C68.44774799 35.38909471 58.89554795 32.77813554 49.3449707 30.16113281 C46.78228071 29.45913473 44.2194851 28.75753759 41.65649414 28.05664062 C26.07756708 23.79602354 10.51667588 19.4826663 -5 15 C-2.25 2.25 -2.25 2.25 0 0 Z " fill="#040404" transform="translate(249,17)"/>
<path d="M0 0 C7.73296328 5.53077734 12.69227389 13.04418898 14.51171875 22.45703125 C13.39731223 25.8002508 12.53699532 26.51722744 9.88671875 28.70703125 C5.88089534 32.09824277 2.16951135 35.69636323 -1.48828125 39.45703125 C2.13981594 37.92941138 4.45518173 35.75095986 7.19921875 32.95703125 C7.98683594 32.16296875 8.77445312 31.36890625 9.5859375 30.55078125 C11.55197677 28.60680093 11.55197677 28.60680093 12.51171875 26.45703125 C13.17171875 26.45703125 13.83171875 26.45703125 14.51171875 26.45703125 C15.50171875 31.40703125 15.50171875 31.40703125 16.51171875 36.45703125 C17.65524791 34.16997294 17.61506314 32.86438363 17.57421875 30.33203125 C17.55359375 29.05328125 17.53296875 27.77453125 17.51171875 26.45703125 C20.32421875 27.39453125 20.32421875 27.39453125 23.51171875 29.45703125 C24.91808957 32.36250063 25.76280991 35.323439 26.51171875 38.45703125 C25.92804486 32.15335322 24.47100256 26.47043062 22.51171875 20.45703125 C33.24267301 14.4724606 43.83055008 12.95730939 56.01171875 13.08203125 C57.14480469 13.07042969 58.27789062 13.05882812 59.4453125 13.046875 C69.76207113 13.08232778 78.26528545 14.8338146 87.51171875 19.45703125 C87.51171875 29.02703125 87.51171875 38.59703125 87.51171875 48.45703125 C32.73171875 48.45703125 -22.04828125 48.45703125 -78.48828125 48.45703125 C-76.83828125 44.82703125 -75.18828125 41.19703125 -73.48828125 37.45703125 C-72.49753001 34.21340898 -71.59284024 31.05480685 -70.80078125 27.76953125 C-70.60162109 26.97998047 -70.40246094 26.19042969 -70.19726562 25.37695312 C-70.00068359 24.59513672 -69.80410156 23.81332031 -69.6015625 23.0078125 C-69.40747803 22.24726563 -69.21339355 21.48671875 -69.01342773 20.703125 C-68.46187785 18.47602887 -68.46187785 18.47602887 -68.15258789 16.2578125 C-67.67075273 13.45250475 -67.16294087 11.11096078 -65.07397461 9.08618164 C-63.20360067 7.84022044 -61.31695077 6.82451976 -59.30078125 5.83203125 C-58.59405273 5.46013672 -57.88732422 5.08824219 -57.15917969 4.70507812 C-39.25378016 -4.50614029 -18.55490758 -11.50579041 0 0 Z " fill="#FCFCFB" transform="translate(312.48828125,251.54296875)"/>
<path d="M0 0 C45.87 0 91.74 0 139 0 C139 11.22 139 22.44 139 34 C133.375 38.5 133.375 38.5 129.07084656 38.48101807 C128.10475967 38.48651672 127.13867279 38.49201538 126.14331055 38.49768066 C124.57129883 38.47610901 124.57129883 38.47610901 122.9675293 38.45410156 C121.29857353 38.45497772 121.29857353 38.45497772 119.59590149 38.45587158 C115.92168888 38.45308696 112.24828949 38.42197542 108.57421875 38.390625 C106.02546126 38.383164 103.47669802 38.3774704 100.92793274 38.37347412 C94.90722209 38.35976694 88.88686001 38.32824831 82.86628896 38.28807616 C76.01023829 38.24332496 69.15417351 38.22136306 62.29801309 38.20129442 C48.19851419 38.15951435 34.09927306 38.08918334 20 38 C20 40.31 20 42.62 20 45 C19.34 45 18.68 45 18 45 C17.67 46.32 17.34 47.64 17 49 C15.5 47.875 15.5 47.875 14 46 C13.74734595 42.90498792 13.60064987 40.79870027 15 38 C14.00419922 38.08701172 14.00419922 38.08701172 12.98828125 38.17578125 C12.10527344 38.22089844 11.22226563 38.26601562 10.3125 38.3125 C9.44238281 38.37050781 8.57226562 38.42851562 7.67578125 38.48828125 C3.7244121 37.76722848 2.35781274 36.19988872 0 33 C-0.36771245 30.1612599 -0.48630804 27.98179849 -0.3125 25.1875 C-0.28994141 24.49462891 -0.26738281 23.80175781 -0.24414062 23.08789062 C-0.18562661 21.39098427 -0.0959548 19.69520139 0 18 C-6.91034483 18.92777778 -12.09691703 20.91571614 -17 26 C-18.94033176 28.88694993 -20.5415284 31.84465279 -22 35 C-23.9375 34.6875 -23.9375 34.6875 -26 34 C-27 31 -27 31 -26.03125 28.6953125 C-21.83509811 21.65177182 -18.21258991 17.57972122 -10.5 14.6875 C-7 14 -7 14 0 14 C0 9.38 0 4.76 0 0 Z " fill="#030301" transform="translate(239,132)"/>
<path d="M0 0 C10.34336518 4.42424233 21.36819332 10.05815769 26.296875 20.8359375 C26.64492187 21.90714844 26.64492187 21.90714844 27 23 C27.66 22.67 28.32 22.34 29 22 C30.36539558 21.8842308 31.73555883 21.821534 33.10546875 21.7890625 C34.33426758 21.74652344 34.33426758 21.74652344 35.58789062 21.703125 C37.30123055 21.65163469 39.01479901 21.60719495 40.72851562 21.5703125 C46.24968823 21.36343015 50.01581125 20.34695381 55 18 C58.52640666 17.39648745 61.79943648 17.32468302 65 19.125 C66.42098605 21.78934884 66.19767261 24.03491085 66 27 C66.61875 27.12375 67.2375 27.2475 67.875 27.375 C70 28 70 28 72 30 C72.45895865 34.0541347 72.43184338 36.28026104 70.3125 39.8125 C66.61619923 43.30900073 64.0614749 44 59 44 C58.9175 44.886875 58.835 45.77375 58.75 46.6875 C57.88412308 50.51178971 56.79977639 52.27799518 54 55 C51.375 55.9375 51.375 55.9375 49 56 C48.34 55.34 47.68 54.68 47 54 C44.19015752 53.63976378 42.61758081 53.61667398 40.1875 55.125 C38.42997586 57.90003811 38.53177254 59.78929745 39 63 C40.88077873 64.91256712 40.88077873 64.91256712 43 66 C42.72159823 70.59362922 40.61152207 73.07158828 37.765625 76.44921875 C33.77517511 79.95410504 29.84419494 80.23833395 24.6875 80.125 C23.61886719 80.10695313 22.55023438 80.08890625 21.44921875 80.0703125 C20.64097656 80.04710937 19.83273438 80.02390625 19 80 C18.8040625 79.13117188 18.608125 78.26234375 18.40625 77.3671875 C16.56366254 70.26687202 15.13359398 65.90194964 8.70703125 62.05078125 C7 61 7 61 6 59 C5.8671875 57.125 5.8671875 57.125 5.875 55 C5.87242188 54.29875 5.86984375 53.5975 5.8671875 52.875 C6 51 6 51 7 49 C7.38947634 46.83940132 7.7382396 44.67134375 8.0625 42.5 C8.23910156 41.3346875 8.41570312 40.169375 8.59765625 38.96875 C9.04476619 36.16900137 9.04476619 36.16900137 9 34 C7.7934375 34.495 7.7934375 34.495 6.5625 35 C1.51695662 35 -0.57045352 32.69837114 -4.33984375 29.56640625 C-6.32645469 26.49533945 -6.14752687 24.7156253 -5.49047852 21.1784668 C-5.32862061 20.45957275 -5.1667627 19.74067871 -5 19 C-4.84909912 18.27272705 -4.69819824 17.5454541 -4.54272461 16.79614258 C-4.06103042 14.56350102 -3.53743367 12.34483472 -3 10.125 C-2.82210937 9.36703125 -2.64421875 8.6090625 -2.4609375 7.828125 C-1.13632015 2.27264031 -1.13632015 2.27264031 0 0 Z " fill="#030302" transform="translate(108,101)"/>
<path d="M0 0 C5.3775125 0.37741975 10.35193431 1.49037431 15.56054688 2.8984375 C16.27109222 3.08895187 16.98163757 3.27946625 17.7137146 3.47575378 C20.05016051 4.10364627 22.38444285 4.73920663 24.71875 5.375 C26.37932136 5.82325731 28.04000907 6.27108376 29.70080566 6.71850586 C33.19173141 7.66013899 36.68168341 8.60527042 40.17089844 9.55322266 C44.53926559 10.73999468 48.9092018 11.92084548 53.27978516 13.09942627 C61.74340143 15.38184681 70.20268785 17.67955585 78.65734863 19.99493408 C83.52730029 21.32783543 88.40062381 22.64728472 93.27718353 23.95579529 C96.30042285 24.76953984 99.32076032 25.59366308 102.34040833 26.42062378 C103.74837888 26.80390089 105.15754393 27.18281921 106.56791687 27.55715942 C108.49046504 28.06813905 110.40847917 28.5960895 112.32617188 29.125 C113.40378784 29.41632812 114.48140381 29.70765625 115.5916748 30.0078125 C116.38642212 30.33523437 117.18116943 30.66265625 118 31 C118.495 32.485 118.495 32.485 119 34 C117.27744283 35.46613447 115.54666216 36.92261056 113.8125 38.375 C112.84957031 39.18710937 111.88664062 39.99921875 110.89453125 40.8359375 C108.07833397 42.94143452 106.37474373 44.11645718 103 45 C100.1291808 44.48888102 97.56481861 43.86916007 94.79296875 43.02734375 C93.97567795 42.79338898 93.15838715 42.5594342 92.31632996 42.31838989 C89.60247606 41.53870531 86.89533745 40.73780459 84.1875 39.9375 C81.30131426 39.1036141 78.4134773 38.27562375 75.5255127 37.44792175 C73.50083777 36.86733337 71.47667658 36.28495078 69.45300293 35.70088196 C56.79479423 32.05467043 44.06832176 28.66235183 31.34555054 25.24996948 C19.18259587 21.98488552 7.06172573 18.62253495 -5 15 C-2.25 2.25 -2.25 2.25 0 0 Z " fill="#0B0B0B" transform="translate(249,17)"/>
<path d="M0 0 C0.02578125 1.03640625 0.0515625 2.0728125 0.078125 3.140625 C0.13441951 4.51045801 0.19176655 5.88024805 0.25 7.25 C0.26417969 7.93191406 0.27835938 8.61382812 0.29296875 9.31640625 C0.45393429 12.63229638 0.78987567 14.70200549 2.71875 17.4375 C5.38357256 19.26272093 7.04564602 19.58134979 10.25 19.75 C11.58804688 19.83507812 11.58804688 19.83507812 12.953125 19.921875 C13.62859375 19.94765625 14.3040625 19.9734375 15 20 C14.97679687 20.62648437 14.95359375 21.25296875 14.9296875 21.8984375 C14.91164063 22.71570313 14.89359375 23.53296875 14.875 24.375 C14.85179687 25.18710938 14.82859375 25.99921875 14.8046875 26.8359375 C14.78629949 29.21342243 14.78629949 29.21342243 17 31 C19.28342191 39.94772943 19.39818336 49.68831904 14.89575195 57.83154297 C13.67536619 59.79400769 12.40201713 61.70712074 11.1015625 63.6171875 C9.03379255 66.94560531 8.31876023 69.1394594 8 73 C7.21496094 72.72285156 6.42992187 72.44570312 5.62109375 72.16015625 C0.06932333 70.24598755 -5.14169035 68.5325736 -11 68 C-11.33 69.65 -11.66 71.3 -12 73 C-14 71 -14 71 -14.23046875 68.9765625 C-14.21628906 68.20054687 -14.20210937 67.42453125 -14.1875 66.625 C-14.18105469 65.85414063 -14.17460937 65.08328125 -14.16796875 64.2890625 C-14.00595151 62.08110656 -13.60634894 60.12464668 -13 58 C-12.34 58 -11.68 58 -11 58 C-11.15984375 57.28585938 -11.3196875 56.57171875 -11.484375 55.8359375 C-12.85116745 48.31857903 -12.6116413 41.77182744 -9 35 C-8.01 35 -7.02 35 -6 35 C-5.505 40.94 -5.505 40.94 -5 47 C-3.02 47 -1.04 47 1 47 C0.8453125 45.2675 0.8453125 45.2675 0.6875 43.5 C0.66000472 38.34921666 2.91832423 34.97816327 6 31 C6.66 30.34 7.32 29.68 8 29 C9.32 29 10.64 29 12 29 C11.505 27.515 11.505 27.515 11 26 C7.63621807 25.76890048 4.35652879 25.63296278 1 26 C-0.37195574 27.29355827 -1.71182656 28.62298702 -3 30 C-6.4375 29.8125 -6.4375 29.8125 -10 29 C-10.9075 28.9175 -11.815 28.835 -12.75 28.75 C-15 28 -15 28 -16.3125 25.4375 C-16.869375 24.633125 -17.42625 23.82875 -18 23 C-22.48936389 22.3586623 -24.71093256 22.05016083 -28.375 24.75 C-31.14134728 28.58032701 -32.25160269 31.52030079 -32.625 36.25 C-32.69976562 37.14203125 -32.77453125 38.0340625 -32.8515625 38.953125 C-32.90054688 39.62859375 -32.94953125 40.3040625 -33 41 C-33.66 41 -34.32 41 -35 41 C-35.061875 39.906875 -35.12375 38.81375 -35.1875 37.6875 C-35.5915869 33.84985553 -35.5915869 33.84985553 -38.5625 32.25 C-39.366875 31.8375 -40.17125 31.425 -41 31 C-41 30.01 -41 29.02 -41 28 C-41.62648437 27.87882812 -42.25296875 27.75765625 -42.8984375 27.6328125 C-43.71570313 27.46523437 -44.53296875 27.29765625 -45.375 27.125 C-46.18710938 26.96257812 -46.99921875 26.80015625 -47.8359375 26.6328125 C-50 26 -50 26 -52 24 C-52.52704701 19.25657689 -51.53308717 16.93664471 -49 13 C-26.95744423 14.60123666 -26.95744423 14.60123666 -22 17 C-21.7525 16.29875 -21.505 15.5975 -21.25 14.875 C-18.48202552 8.50865869 -14.93999523 4.45925476 -9 1 C-5.8035914 -0.06546953 -3.34252724 -0.07427838 0 0 Z " fill="#FA987F" transform="translate(239,150)"/>
<path d="M0 0 C15.84 0 31.68 0 48 0 C48 10.56 48 21.12 48 32 C32.16 32 16.32 32 0 32 C0 21.44 0 10.88 0 0 Z " fill="#020201" transform="translate(286,99)"/>
<path d="M0 0 C15.18 0 30.36 0 46 0 C46 10.56 46 21.12 46 32 C30.82 32 15.64 32 0 32 C0 21.44 0 10.88 0 0 Z " fill="#040403" transform="translate(239,99)"/>
<path d="M0 0 C14.19 0 28.38 0 43 0 C43 10.56 43 21.12 43 32 C28.81 32 14.62 32 0 32 C0 21.44 0 10.88 0 0 Z " fill="#020201" transform="translate(335,99)"/>
<path d="M0 0 C0.33 0 0.66 0 1 0 C0.95617188 0.64066406 0.91234375 1.28132812 0.8671875 1.94140625 C0.87916733 5.96064067 1.0440228 8.88864953 3.73046875 12.01171875 C12.93472235 18.8725108 24.65043537 22.91307065 36 24 C35.32212766 27.70206311 34.37521944 31.23131231 33.2578125 34.82421875 C32.91363281 35.93603516 32.56945312 37.04785156 32.21484375 38.19335938 C31.85519531 39.34642578 31.49554688 40.49949219 31.125 41.6875 C30.41894404 43.96213817 29.7132103 46.23687639 29.0078125 48.51171875 C28.66911133 49.60274902 28.33041016 50.6937793 27.98144531 51.81787109 C26.62857233 56.20427568 25.30816847 60.60008092 24 65 C11.10901337 65.68853935 11.10901337 65.68853935 7.375 63.25 C1.80744932 57.97547831 0.32564653 52.97905434 -0.17388916 45.34127808 C-0.22973039 42.43243743 -0.22523863 39.53030726 -0.1953125 36.62109375 C-0.1924826 35.56841812 -0.18965271 34.51574249 -0.18673706 33.4311676 C-0.17562562 30.09982484 -0.15053798 26.76876023 -0.125 23.4375 C-0.11495852 21.16601953 -0.10583472 18.89453481 -0.09765625 16.62304688 C-0.07571597 11.08193784 -0.0423295 5.5409888 0 0 Z " fill="#FCFDFC" transform="translate(46,202)"/>
<path d="M0 0 C8.12910926 6.05574391 14.58906152 14.89408533 19 24 C19 24.99 19 25.98 19 27 C19.66 27.33 20.32 27.66 21 28 C21.79793386 30.19868636 22.48988712 32.43637767 23.125 34.6875 C23.47820312 35.90824219 23.83140625 37.12898438 24.1953125 38.38671875 C24.9418635 41.7389502 25.1574381 44.58359319 25 48 C22.24229713 45.99439791 21.70874904 44.14545693 21.0625 40.9375 C20.42591207 37.64159774 20.42591207 37.64159774 17.875 35.5 C17.25625 35.335 16.6375 35.17 16 35 C16.020625 36.299375 16.04125 37.59875 16.0625 38.9375 C16.08399454 40.29165633 16.07148199 41.64756083 16 43 C15.67 43.33 15.34 43.66 15 44 C14.76924918 45.34747084 14.58846937 46.70377565 14.4375 48.0625 C14.293125 49.361875 14.14875 50.66125 14 52 C13.67 52 13.34 52 13 52 C12.505 43.09 12.505 43.09 12 34 C11.34 34 10.68 34 10 34 C9.77183594 34.55300781 9.54367187 35.10601562 9.30859375 35.67578125 C7.62457111 38.66680654 5.49456758 40.76971769 3.0625 43.1875 C2.18722656 44.06792969 1.31195313 44.94835937 0.41015625 45.85546875 C-2 48 -2 48 -5 49 C-3.34139399 44.71872325 -0.21582144 41.95626884 3 38.8125 C3.5465625 38.26658203 4.093125 37.72066406 4.65625 37.15820312 C8.71851504 33.14074248 8.71851504 33.14074248 11 32 C9.02582866 22.30861345 5.85046964 14.2618636 -2.51171875 8.47265625 C-12.85133076 2.35329404 -24.45161526 0.99617509 -36.19873047 3.46142578 C-47.52832049 6.49729084 -57.84182868 12.27887723 -68 18 C-68 17.01 -68 16.02 -68 15 C-67.195625 14.5875 -66.39125 14.175 -65.5625 13.75 C-62.5915869 12.15014447 -62.5915869 12.15014447 -62.1875 8.3125 C-62.125625 7.219375 -62.06375 6.12625 -62 5 C-63.65 5.33 -65.3 5.66 -67 6 C-67 5.34 -67 4.68 -67 4 C-45.3552577 -6.65771543 -21.94419663 -14.61566304 0 0 Z " fill="#131313" transform="translate(315,244)"/>
<path d="M0 0 C1.1682299 5.60561929 1.21933241 11.1121619 1.25 16.8125 C1.270625 17.75931641 1.29125 18.70613281 1.3125 19.68164062 C1.34888177 26.28947892 1.02057911 33.4043451 -3.41699219 38.68676758 C-6.17223896 40.97246659 -8.75935512 41.1186991 -12.1875 41.0625 C-13.445625 41.041875 -14.70375 41.02125 -16 41 C-16.12375 42.299375 -16.2475 43.59875 -16.375 44.9375 C-16.5859375 47.15234375 -16.5859375 47.15234375 -17 49 C-19 50 -19 50 -21.546875 49.2578125 C-22.60390625 48.88398438 -23.6609375 48.51015625 -24.75 48.125 C-31.90408946 45.80691515 -38.49910602 45.22491436 -46 45 C-45.67 42.36 -45.34 39.72 -45 37 C-43.80503906 36.94392578 -43.80503906 36.94392578 -42.5859375 36.88671875 C-32.65837339 36.27147731 -32.65837339 36.27147731 -24.75 30.625 C-23.08617848 28.12926772 -21.97018078 25.82969395 -21 23 C-21.639375 22.690625 -22.27875 22.38125 -22.9375 22.0625 C-25 21 -25 21 -26 20 C-26.40030877 16.39722105 -26.44262507 14.6229538 -24.3125 11.625 C-21.57772115 9.70326351 -20.27359086 9.48311723 -17 10 C-16.34 10.66 -15.68 11.32 -15 12 C-12.52673046 12.14091482 -12.52673046 12.14091482 -10 11 C-7.48128906 7.85161133 -5.6191333 5.02436645 -5 1 C-1.125 0 -1.125 0 0 0 Z " fill="#FC9A80" transform="translate(172,144)"/>
<path d="M0 0 C0.66 0 1.32 0 2 0 C3.62109375 1.64453125 3.62109375 1.64453125 5.4375 3.8125 C7.85766973 6.72806941 7.85766973 6.72806941 10.58457947 9.3399353 C12.4423872 11.5188503 12.38305535 12.76493685 12.40063477 15.60400391 C12.41397354 16.53572418 12.42731232 17.46744446 12.4410553 18.42739868 C12.44117111 19.43362274 12.44128693 20.4398468 12.44140625 21.4765625 C12.45461411 22.51638275 12.46782196 23.556203 12.48143005 24.62753296 C12.52238557 27.96004853 12.54399295 31.29228958 12.5625 34.625 C12.58636842 37.93620059 12.6146864 41.24714556 12.65428162 44.55819702 C12.67842099 46.61834858 12.69345586 48.67863391 12.69789124 50.73892212 C12.77285898 57.73504693 13.15739521 64.54511601 16.5 70.8125 C21.5845377 75.26147049 28.34053355 77.29900353 35 78 C34.67 80.31 34.34 82.62 34 85 C25.08686271 85.55707108 17.85460417 81.40237216 10.71484375 76.3984375 C3.50158923 69.961995 0.76154584 60.35377217 0 51 C-0.12714273 47.02002056 -0.11678595 43.04416517 -0.09765625 39.0625 C-0.0962413 37.94182129 -0.09482635 36.82114258 -0.09336853 35.66650391 C-0.08780139 32.11097467 -0.07525498 28.55550998 -0.0625 25 C-0.05748075 22.579428 -0.05291859 20.158855 -0.04882812 17.73828125 C-0.03784272 11.82549906 -0.02113752 5.91275415 0 0 Z " fill="#111111" transform="translate(34,191)"/>
<path d="M0 0 C2 1.875 2 1.875 3 4 C3 4.66 3 5.32 3 6 C4.2375 6.144375 5.475 6.28875 6.75 6.4375 C9.56504499 6.78688502 12.2701497 7.20379366 15 8 C15.28875 7.360625 15.5775 6.72125 15.875 6.0625 C17 4 17 4 19 3 C20.70702735 2.93003986 22.41668003 2.91559846 24.125 2.9375 C25.03507812 2.94652344 25.94515625 2.95554688 26.8828125 2.96484375 C27.93082031 2.98224609 27.93082031 2.98224609 29 3 C29.66 4.32 30.32 5.64 31 7 C30.34 7.66 29.68 8.32 29 9 C29 8.34 29 7.68 29 7 C25.03167142 8.87393294 22.7923939 11.05276927 20.71484375 14.94921875 C19.44756319 18.5848597 19.69034602 22.20673868 20 26 C17.6568787 25.74438677 15.32156597 25.40729228 13 25 C11.73762269 22.47524538 11.90143596 20.68799534 11.9375 17.875 C11.94652344 16.96492188 11.95554688 16.05484375 11.96484375 15.1171875 C11.97644531 14.41851562 11.98804688 13.71984375 12 13 C11.01 13.33 10.02 13.66 9 14 C6.77412414 18.79079242 6.75374887 23.21716342 6.875 28.375 C6.88402344 29.11105469 6.89304688 29.84710938 6.90234375 30.60546875 C6.92569856 32.4037888 6.96156164 34.20193911 7 36 C6.34 36 5.68 36 5 36 C5 41.28 5 46.56 5 52 C3 50 3 50 2.76953125 47.609375 C2.844138 42.64463479 2.94556945 37.87674129 4 33 C2.989375 32.896875 1.97875 32.79375 0.9375 32.6875 C-3.35396155 31.93819719 -6.20912529 31.12288984 -10 29 C-10.6875 26.4375 -10.6875 26.4375 -11 24 C-12.97511052 22.82220198 -12.97511052 22.82220198 -15 22 C-15.51600956 14.47772729 -15.80220312 8.67207219 -11.2890625 2.390625 C-8.28019894 -0.85530053 -4.12873272 -0.63324122 0 0 Z " fill="#485A84" transform="translate(221,172)"/>
<path d="M0 0 C2.05046483 0.60383078 4.1025483 1.20219348 6.15625 1.79492188 C9.88213127 2.90263962 13.6064579 4.01154295 17.30371094 5.21166992 C18.04393494 5.44834885 18.78415894 5.68502777 19.54681396 5.92887878 C21.25 6.8125 21.25 6.8125 22.25 9.8125 C20.52744283 11.27863447 18.79666216 12.73511056 17.0625 14.1875 C16.09957031 14.99960937 15.13664062 15.81171875 14.14453125 16.6484375 C8.20735317 21.08729938 8.20735317 21.08729938 4.14518738 20.51699829 C1.51974956 19.8862496 -1.0569868 19.15448806 -3.64453125 18.3828125 C-4.59188644 18.11363007 -5.53924164 17.84444763 -6.51530457 17.56710815 C-9.53548751 16.70528438 -12.54881409 15.82174508 -15.5625 14.9375 C-17.61091404 14.34881762 -19.65973833 13.76156078 -21.70898438 13.17578125 C-26.72753131 11.73785224 -31.74062737 10.28205111 -36.75 8.8125 C-35.60621658 3.10383103 -31.70393669 -0.26051658 -27.03710938 -3.41943359 C-18.7099354 -7.76734475 -8.24905236 -2.67135629 0 0 Z " fill="#0F100F" transform="translate(345.75,41.1875)"/>
<path d="M0 0 C2.35011613 1.75242224 4.09577359 3.37429858 5.8203125 5.74609375 C6.05728528 9.41917183 5.74682467 11.27049733 4.8203125 14.74609375 C4.48635997 16.19688239 4.15737401 17.64881886 3.83203125 19.1015625 C2.87505995 23.32862633 1.85895338 27.53839045 0.8203125 31.74609375 C-8.76263021 30.55169799 -16.51380984 24.49899331 -23.1796875 17.74609375 C-23.5096875 17.08609375 -23.8396875 16.42609375 -24.1796875 15.74609375 C-24.5096875 17.72609375 -24.8396875 19.70609375 -25.1796875 21.74609375 C-25.8396875 21.41609375 -26.4996875 21.08609375 -27.1796875 20.74609375 C-27.1796875 19.42609375 -27.1796875 18.10609375 -27.1796875 16.74609375 C-28.1696875 16.74609375 -29.1596875 16.74609375 -30.1796875 16.74609375 C-32.1796875 13.74609375 -32.1796875 13.74609375 -32.1796875 9.74609375 C-30.8596875 10.07609375 -29.5396875 10.40609375 -28.1796875 10.74609375 C-28.5096875 9.42609375 -28.8396875 8.10609375 -29.1796875 6.74609375 C-5.72615833 -3.29408033 -5.72615833 -3.29408033 0 0 Z " fill="#040505" transform="translate(72.1796875,166.25390625)"/>
<path d="M0 0 C0.75410156 0.00322266 1.50820312 0.00644531 2.28515625 0.00976562 C3.06246094 0.01814453 3.83976562 0.02652344 4.640625 0.03515625 C5.43339844 0.03966797 6.22617188 0.04417969 7.04296875 0.04882812 C8.99222008 0.0605706 10.94143238 0.07850479 12.890625 0.09765625 C12.22332095 5.69851158 10.97051467 10.98205968 9.453125 16.41015625 C9.12731445 17.62541992 9.12731445 17.62541992 8.79492188 18.86523438 C8.58029297 19.63931641 8.36566406 20.41339844 8.14453125 21.2109375 C7.95189697 21.91001221 7.7592627 22.60908691 7.56079102 23.3293457 C6.890625 25.09765625 6.890625 25.09765625 4.890625 27.09765625 C2.90234375 27.984375 2.90234375 27.984375 0.578125 28.78515625 C-0.18113281 29.05714844 -0.94039062 29.32914063 -1.72265625 29.609375 C-4.74456152 30.22760439 -6.21270374 30.23595061 -9.109375 29.09765625 C-11.22990643 27.04178677 -12.9339113 24.72922093 -14.671875 22.34765625 C-15.61064953 21.1028438 -16.54945115 19.85805179 -17.48828125 18.61328125 C-17.93059082 18.01708984 -18.37290039 17.42089844 -18.82861328 16.80664062 C-20.53649176 14.52773301 -22.31559835 12.30927735 -24.109375 10.09765625 C-21.08899845 6.69247211 -18.32502805 5.08060877 -14.109375 3.41015625 C-13.078125 2.99378906 -12.046875 2.57742187 -10.984375 2.1484375 C-7.21466266 0.77064861 -4.01917432 -0.03044829 0 0 Z " fill="#030303" transform="translate(84.109375,97.90234375)"/>
<path d="M0 0 C5.76315769 1.54803265 10.37456974 4.48278386 15.375 7.625 C16.20644531 8.140625 17.03789063 8.65625 17.89453125 9.1875 C19.93317962 10.45286795 21.96812882 11.72378866 24 13 C23.93989582 14.93835966 23.85108283 16.87584491 23.75 18.8125 C23.68039063 20.43091797 23.68039063 20.43091797 23.609375 22.08203125 C23 25 23 25 21.26464844 26.5546875 C17.29075581 29.09085011 12.89769922 30.53761692 8.5 32.1875 C7.54996094 32.55552734 6.59992187 32.92355469 5.62109375 33.30273438 C4.70457031 33.65013672 3.78804687 33.99753906 2.84375 34.35546875 C1.59368164 34.82956177 1.59368164 34.82956177 0.31835938 35.31323242 C-2 36 -2 36 -6 36 C-5.55108359 5.55108359 -5.55108359 5.55108359 0 0 Z " fill="#030403" transform="translate(42,127)"/>
<path d="M0 0 C2.2919696 2.04729558 4.19119675 4.36770872 6.125 6.75 C6.64964844 7.37132812 7.17429687 7.99265625 7.71484375 8.6328125 C10.46851335 11.93721602 12.90965683 15.22296614 15 19 C2.80379417 27.17489718 -7.70305022 28.48433832 -22 28 C-16.14090687 3.76060458 -16.14090687 3.76060458 -12 1 C-7.5870441 -0.55270671 -4.45192437 -1.63018995 0 0 Z " fill="#030303" transform="translate(105,173)"/>
<path d="M0 0 C0.99 0 1.98 0 3 0 C3.94576408 1.41864612 4.88596391 2.84142195 5.79296875 4.28515625 C11.90217098 12.96457301 22.24638919 16.21325405 32 19 C30.68 26.59 29.36 34.18 28 42 C22.06 42 16.12 42 10 42 C10 32.43 10 22.86 10 13 C7.03 13 4.06 13 1 13 C0.34 12.67 -0.32 12.34 -1 12 C-1.02687279 10.18757948 -1.04633715 8.37504767 -1.0625 6.5625 C-1.07410156 5.55316406 -1.08570313 4.54382813 -1.09765625 3.50390625 C-1 1 -1 1 0 0 Z " fill="#D9E1FB" transform="translate(36,258)"/>
<path d="M0 0 C1.97931664 0.14378343 3.95844584 0.29014774 5.9375 0.4375 C7.03964844 0.51871094 8.14179688 0.59992188 9.27734375 0.68359375 C11.12005859 0.84021484 11.12005859 0.84021484 13 1 C13.94830688 1.06803833 13.94830688 1.06803833 14.91577148 1.13745117 C21.79975611 1.74369509 28.45869519 3.35750947 35.16674805 4.95629883 C37.19243637 5.4386755 39.22002225 5.91231834 41.24804688 6.38476562 C46.91598038 7.71822597 52.49325376 9.08604123 58 11 C58 11.33 58 11.66 58 12 C57.30132812 12.10957031 56.60265625 12.21914062 55.8828125 12.33203125 C54.97273438 12.49058594 54.06265625 12.64914063 53.125 12.8125 C52.22007812 12.96332031 51.31515625 13.11414063 50.3828125 13.26953125 C47.65587522 13.83051301 47.65587522 13.83051301 46 17 C43.66487041 16.67949202 41.33177975 16.34403308 39 16 C38.0925 15.9175 37.185 15.835 36.25 15.75 C34 15 34 15 32.6875 12.4375 C32.130625 11.633125 31.57375 10.82875 31 10 C26.51063611 9.3586623 24.28906744 9.05016083 20.625 11.75 C17.85865272 15.58032701 16.74839731 18.52030079 16.375 23.25 C16.30023438 24.14203125 16.22546875 25.0340625 16.1484375 25.953125 C16.09945312 26.62859375 16.05046875 27.3040625 16 28 C15.34 28 14.68 28 14 28 C13.938125 26.906875 13.87625 25.81375 13.8125 24.6875 C13.4084131 20.84985553 13.4084131 20.84985553 10.4375 19.25 C9.633125 18.8375 8.82875 18.425 8 18 C8 17.01 8 16.02 8 15 C7.37351563 14.87882813 6.74703125 14.75765625 6.1015625 14.6328125 C4.87566406 14.38144531 4.87566406 14.38144531 3.625 14.125 C2.81289062 13.96257812 2.00078125 13.80015625 1.1640625 13.6328125 C-1 13 -1 13 -3 11 C-3.52704701 6.25657689 -2.53308717 3.93664471 0 0 Z " fill="#BDCBEC" transform="translate(190,163)"/>
<path d="M0 0 C4.41368291 3.84706146 7.29053191 8.39674349 9 14 C9.22112615 17.35128969 9.18210764 20.64787046 9 24 C9.99 24.33 10.98 24.66 12 25 C12 25.99 12 26.98 12 28 C11.34 28 10.68 28 10 28 C9.67 29.32 9.34 30.64 9 32 C7.5 30.875 7.5 30.875 6 29 C5.74734595 25.90498792 5.60064987 23.79870027 7 21 C6.33613281 21.05800781 5.67226562 21.11601562 4.98828125 21.17578125 C4.10527344 21.22089844 3.22226563 21.26601562 2.3125 21.3125 C1.44238281 21.37050781 0.57226562 21.42851562 -0.32421875 21.48828125 C-4.2755879 20.76722848 -5.64218726 19.19988872 -8 16 C-8.36771245 13.1612599 -8.48630804 10.98179849 -8.3125 8.1875 C-8.28994141 7.49462891 -8.26738281 6.80175781 -8.24414062 6.08789062 C-8.18562661 4.39098427 -8.0959548 2.69520139 -8 1 C-14.91034483 1.92777778 -20.09691703 3.91571614 -25 9 C-26.94033176 11.88694993 -28.5415284 14.84465279 -30 18 C-31.9375 17.6875 -31.9375 17.6875 -34 17 C-35 14 -35 14 -34.03125 11.6953125 C-29.83509811 4.65177182 -26.21258991 0.57972122 -18.5 -2.3125 C-11.77363068 -3.63375112 -5.998009 -3.45007428 0 0 Z " fill="#1C2C52" transform="translate(247,149)"/>
<path d="M0 0 C0.66 0 1.32 0 2 0 C2.66 3.3 3.32 6.6 4 10 C5.14352916 7.71294169 5.10334439 6.40735238 5.0625 3.875 C5.041875 2.59625 5.02125 1.3175 5 0 C7.8125 0.9375 7.8125 0.9375 11 3 C12.06933638 5.25189662 12.73267596 7.43336909 13.359375 9.84375 C13.96318477 12.26410338 13.96318477 12.26410338 16 15 C16 17.31 16 19.62 16 22 C4.78 22 -6.44 22 -18 22 C-16.03004428 17.0751107 -14.7485652 15.48313212 -11 12 C-9.24876692 10.27208216 -7.49875302 8.54292776 -5.75 6.8125 C-4.87859375 5.95269531 -4.0071875 5.09289062 -3.109375 4.20703125 C-0.97005762 2.18568934 -0.97005762 2.18568934 0 0 Z " fill="#FDFDFD" transform="translate(325,278)"/>
<path d="M0 0 C0.02578125 1.03640625 0.0515625 2.0728125 0.078125 3.140625 C0.13441951 4.51045801 0.19176655 5.88024805 0.25 7.25 C0.26417969 7.93191406 0.27835938 8.61382812 0.29296875 9.31640625 C0.45393429 12.63229638 0.78987567 14.70200549 2.71875 17.4375 C5.38357256 19.26272093 7.04564602 19.58134979 10.25 19.75 C11.58804688 19.83507812 11.58804688 19.83507812 12.953125 19.921875 C13.62859375 19.94765625 14.3040625 19.9734375 15 20 C15 22.64 15 25.28 15 28 C14.48824219 27.71898437 13.97648437 27.43796875 13.44921875 27.1484375 C10.32318875 25.68264353 7.10279558 24.6472161 3.8125 23.625 C3.12285156 23.40948486 2.43320313 23.19396973 1.72265625 22.97192383 C-6.09043964 20.58566242 -14.02777604 18.76612387 -22 17 C-19.19662092 9.75283661 -15.73037727 4.91954686 -9 1 C-5.8035914 -0.06546953 -3.34252724 -0.07427838 0 0 Z " fill="#FAFBFB" transform="translate(239,150)"/>
<path d="M0 0 C2 1.5625 2 1.5625 3 4 C3.91713324 11.642777 1.39076259 19.72748202 -3 26 C-7.74364496 25.53493677 -11.23618767 25.016162 -15 22 C-16.41431477 15.9184465 -15.89663364 9.61508969 -12.625 4.25 C-9.29940397 -0.37860734 -5.54801958 -0.79419503 0 0 Z " fill="#101C38" transform="translate(221,172)"/>
<path d="M0 0 C0.94359375 0.53109375 1.8871875 1.0621875 2.859375 1.609375 C15.33130127 8.5209757 26.71644918 12.39415701 41 14 C39.35 16.97 37.7 19.94 36 23 C23.96466481 24.2895002 12.13648736 18.53727675 2.72265625 11.41796875 C1 10 1 10 0 9 C-0.07179964 7.48071962 -0.08392007 5.95832518 -0.0625 4.4375 C-0.05347656 3.61121094 -0.04445312 2.78492188 -0.03515625 1.93359375 C-0.02355469 1.29550781 -0.01195312 0.65742188 0 0 Z " fill="#D6DFFC" transform="translate(47,203)"/>
<path d="M0 0 C17.46784486 17.01497481 17.46784486 17.01497481 18.25 26.4375 C18.1675 27.943125 18.085 29.44875 18 31 C13.05 31 8.1 31 3 31 C2.49353019 27.33412328 1.99464131 23.66747562 1.5 20 C1.35691406 18.97003906 1.21382812 17.94007813 1.06640625 16.87890625 C0.30596126 11.19367468 -0.16544234 5.73533461 0 0 Z " fill="#0D2AAF" transform="translate(160,269)"/>
<path d="M0 0 C4.24982159 1.13874379 6.01001324 2.91556089 8.28320312 6.65039062 C8.79270508 7.53500977 8.79270508 7.53500977 9.3125 8.4375 C9.67150391 9.02337891 10.03050781 9.60925781 10.40039062 10.21289062 C12.07285154 13.01943933 13 14.67898181 13 18 C13.66 18.33 14.32 18.66 15 19 C15.79793386 21.19868636 16.48988712 23.43637767 17.125 25.6875 C17.47820312 26.90824219 17.83140625 28.12898438 18.1953125 29.38671875 C18.9418635 32.7389502 19.1574381 35.58359319 19 39 C16.24229713 36.99439791 15.70874904 35.14545693 15.0625 31.9375 C14.42591207 28.64159774 14.42591207 28.64159774 11.875 26.5 C10.946875 26.2525 10.946875 26.2525 10 26 C10.020625 27.299375 10.04125 28.59875 10.0625 29.9375 C10.08399454 31.29165633 10.07148199 32.64756083 10 34 C9.67 34.33 9.34 34.66 9 35 C8.76924918 36.34747084 8.58846937 37.70377565 8.4375 39.0625 C8.293125 40.361875 8.14875 41.66125 8 43 C7.67 43 7.34 43 7 43 C6.67 37.06 6.34 31.12 6 25 C5.34 25 4.68 25 4 25 C3.77183594 25.55300781 3.54367187 26.10601562 3.30859375 26.67578125 C1.62457111 29.66680654 -0.50543242 31.76971769 -2.9375 34.1875 C-3.81277344 35.06792969 -4.68804687 35.94835937 -5.58984375 36.85546875 C-8 39 -8 39 -11 40 C-9.34139399 35.71872325 -6.21582144 32.95626884 -3 29.8125 C-2.4534375 29.26658203 -1.906875 28.72066406 -1.34375 28.15820312 C2.71851504 24.14074248 2.71851504 24.14074248 5 23 C4.71125 21.865625 4.4225 20.73125 4.125 19.5625 C2.50809632 13.08341788 1.01595664 6.60371817 0 0 Z " fill="#98A5C1" transform="translate(321,253)"/>
<path d="M0 0 C-0.99 0.66 -1.98 1.32 -3 2 C-3.25660094 5.07921132 -3.39431504 7.21136993 -2 10 C-2.51272461 10.21092285 -3.02544922 10.4218457 -3.55371094 10.63916016 C-13.55269278 14.76547532 -23.42327145 18.95358017 -33 24 C-31.2578125 20.1015625 -31.2578125 20.1015625 -28.9375 19.1875 C-28.298125 18.795625 -27.65875 18.40375 -27 18 C-26.18129815 14.43793339 -26.18129815 14.43793339 -26 11 C-27.65 11.33 -29.3 11.66 -31 12 C-31 11.34 -31 10.68 -31 10 C-9.0096233 -0.57508234 -9.0096233 -0.57508234 0 0 Z " fill="#080808" transform="translate(279,238)"/>
<path d="M0 0 C1.2375 0.350625 2.475 0.70125 3.75 1.0625 C4.70261719 1.31257813 5.65523438 1.56265625 6.63671875 1.8203125 C9.35117358 2.53628906 12.05211442 3.28679691 14.75 4.0625 C11.32508603 7.62064861 7.61881233 10.52090254 3.67578125 13.4765625 C1.64826707 14.92751713 1.64826707 14.92751713 0.75 17.0625 C-5.1629304 16.41979017 -10.59244531 14.87246216 -16.25 13.0625 C-5.78944403 0.11133546 -5.78944403 0.11133546 0 0 Z " fill="#050605" transform="translate(308.25,31.9375)"/>
<path d="M0 0 C1.44257886 0.03952271 2.88459177 0.11058817 4.32421875 0.2109375 C5.06478516 0.23800781 5.80535156 0.26507813 6.56835938 0.29296875 C8.38407873 0.36325466 10.19828676 0.47086661 12.01171875 0.5859375 C9.39354709 5.99935523 6.95027547 10.95844192 2.01171875 14.5859375 C-3.56154722 15.83274718 -9.36128878 15.16142537 -14.98828125 14.5859375 C-14.0946361 13.37598496 -13.19822346 12.16807639 -12.30078125 10.9609375 C-11.80191406 10.28804687 -11.30304688 9.61515625 -10.7890625 8.921875 C-10.19480469 8.15101562 -9.60054688 7.38015625 -8.98828125 6.5859375 C-8.26640625 5.5134375 -7.54453125 4.4409375 -6.80078125 3.3359375 C-3.57809312 0.18486466 -3.57809312 0.18486466 0 0 Z " fill="#F8F8F8" transform="translate(327.98828125,68.4140625)"/>
<path d="M0 0 C-0.44085938 0.72574219 -0.88171875 1.45148438 -1.3359375 2.19921875 C-2.99126968 4.90768014 -2.99126968 4.90768014 -4.2265625 7.45703125 C-5.93587309 10.33612144 -7.24619951 12.05025926 -10 14 C-15.5812762 15.13573278 -21.37375009 14.51262794 -27 14 C-26.38511719 13.10023437 -25.77023437 12.20046875 -25.13671875 11.2734375 C-23.0432607 8.22821829 -23.0432607 8.22821829 -21.89453125 5.6640625 C-17.39120203 -2.82235575 -8.31166875 -0.66641442 0 0 Z " fill="#F8F8F8" transform="translate(306,69)"/>
<path d="M0 0 C0.33 0 0.66 0 1 0 C1.14539828 4.3008501 1.28764506 8.60179077 1.42724609 12.90283203 C1.47492895 14.35923931 1.52340289 15.81562095 1.57275391 17.27197266 C1.89675982 26.85329025 2.06825575 36.41196342 2 46 C-0.97 46 -3.94 46 -7 46 C-6.62701545 35.23939569 -4.87299524 24.89046806 -2.9375 14.3203125 C-2.33144637 11.00714041 -1.81874972 7.71354734 -1.4375 4.3671875 C-1 1 -1 1 0 0 Z " fill="#0926AD" transform="translate(84,254)"/>
<path d="M0 0 C-0.38671875 0.50789063 -0.7734375 1.01578125 -1.171875 1.5390625 C-1.69265625 2.22742188 -2.2134375 2.91578125 -2.75 3.625 C-3.26046875 4.29789062 -3.7709375 4.97078125 -4.296875 5.6640625 C-6.13939418 8.061959 -6.13939418 8.061959 -7.65625 11.25 C-10 14 -10 14 -11.91113281 14.47802734 C-14.2186064 14.59129959 -16.4448106 14.52409185 -18.75 14.375 C-19.54277344 14.34792969 -20.33554688 14.32085937 -21.15234375 14.29296875 C-23.10273366 14.22247273 -25.05171901 14.11485499 -27 14 C-26.008498 12.26850908 -25.01650972 10.53729303 -24.02099609 8.80810547 C-23.27518735 7.48733562 -22.57190451 6.14229631 -21.89453125 4.78515625 C-17.18608023 -2.71096974 -7.74075424 -0.5430596 0 0 Z " fill="#F8F8F8" transform="translate(272,69)"/>
<path d="M0 0 C-0.27714844 0.55171875 -0.55429687 1.1034375 -0.83984375 1.671875 C-1.64474229 3.28709226 -2.40504001 4.92500488 -3.12890625 6.578125 C-4.82992053 9.74840774 -6.16808198 11.74291907 -9 14 C-14.55731526 15.27281326 -20.38523948 14.56842345 -26 14 C-19.61289604 0.72970634 -14.03385278 -1.53282373 0 0 Z " fill="#F8F8F8" transform="translate(374,69)"/>
<path d="M0 0 C1.125 1.6640625 1.125 1.6640625 1.125 4.6640625 C-0.61523438 4.70273438 -0.61523438 4.70273438 -2.390625 4.7421875 C-13.44561289 5.09910602 -23.23272568 6.17785917 -32.9375 11.9765625 C-33.906875 12.5334375 -34.87625 13.0903125 -35.875 13.6640625 C-36.865 13.3340625 -37.855 13.0040625 -38.875 12.6640625 C-38.7109375 10.359375 -38.7109375 10.359375 -37.875 7.6640625 C-29.75779653 1.77298172 -9.39392059 -6.69316842 0 0 Z " fill="#FAFBFB" transform="translate(96.875,93.3359375)"/>
<path d="M0 0 C5.42466007 0.80158207 8.36130041 2.99293823 12 7 C14.64624695 11.14114434 15.35779984 15.11006883 15 20 C13.43997572 20.1363128 11.87642824 20.23259126 10.3125 20.3125 C9.44238281 20.37050781 8.57226562 20.42851562 7.67578125 20.48828125 C3.7244121 19.76722848 2.35781274 18.19988872 0 15 C-0.36771245 12.1612599 -0.48630804 9.98179849 -0.3125 7.1875 C-0.28994141 6.49462891 -0.26738281 5.80175781 -0.24414062 5.08789062 C-0.18562661 3.39098427 -0.0959548 1.69520139 0 0 Z " fill="#010202" transform="translate(239,150)"/>
<path d="M0 0 C0.7528125 0.17660156 1.505625 0.35320313 2.28125 0.53515625 C4.19571152 0.99017791 6.09921459 1.49086105 8 2 C6.37521075 4.05488052 4.73245259 6.03838701 3 8 C2.55398438 8.51046875 2.10796875 9.0209375 1.6484375 9.546875 C-0.39964465 11.58351535 -2.17623742 12.93875371 -5.1015625 13.15625 C-7.46211105 12.92911818 -9.68844894 12.52835453 -12 12 C-13.16595703 11.73703125 -13.16595703 11.73703125 -14.35546875 11.46875 C-16.24564495 11.01376953 -18.124341 10.51154336 -20 10 C-14.7722025 2.59395355 -9.34393974 -2.60552166 0 0 Z " fill="#FAFAFA" transform="translate(297,30)"/>
<path d="M0 0 C0.78503906 0.26039062 1.57007813 0.52078125 2.37890625 0.7890625 C3.57515625 1.1603125 4.77140625 1.5315625 6.00390625 1.9140625 C6.78765625 2.2028125 7.57140625 2.4915625 8.37890625 2.7890625 C7.23683267 3.96574437 6.08468365 5.13368969 4.89453125 6.26171875 C3.32774887 7.76546694 3.32774887 7.76546694 2.05078125 9.59765625 C0.19738585 11.78758923 -0.89835774 12.79304565 -3.62109375 13.7890625 C-9.11913465 13.40776979 -14.42649372 11.52267451 -19.62109375 9.7890625 C-18.86183594 9.03496094 -18.10257812 8.28085937 -17.3203125 7.50390625 C-15.83199362 6.00697192 -14.35777625 4.49367823 -12.953125 2.91796875 C-8.63676046 -1.53154842 -5.87529767 -1.63252546 0 0 Z " fill="#F9F9F9" transform="translate(359.62109375,47.2109375)"/>
<path d="M0 0 C0 2 0 2 -2.125 4.19921875 C-9.65290475 10.71453848 -9.65290475 10.71453848 -13.23046875 11.47265625 C-15.3292375 11.23387418 -17.02820729 10.75592053 -19 10 C-19.74894531 9.74605469 -20.49789063 9.49210937 -21.26953125 9.23046875 C-23.20085921 8.54384953 -25.10394094 7.77873854 -27 7 C-25.85856857 5.82397974 -24.7074647 4.65637141 -23.51953125 3.52734375 C-21.94991041 2.01914332 -21.94991041 2.01914332 -20.63671875 0.19140625 C-14.80272513 -6.57723234 -7.25501357 -2.59574488 0 0 Z " fill="#FAFAFA" transform="translate(336,41)"/>
<path d="M0 0 C0.66 0.66 1.32 1.32 2 2 C-6.75106345 11.78358738 -6.75106345 11.78358738 -12.00390625 12.2890625 C-16.58165005 11.42956775 -20.7010978 9.75654068 -25 8 C-23.85921037 6.82464098 -22.70985386 5.65681284 -21.52734375 4.5234375 C-19.9569331 3.01120239 -19.9569331 3.01120239 -18.56640625 1.2265625 C-13.03309018 -4.8725041 -7.10538153 -2.70302626 0 0 Z " fill="#F9F9F9" transform="translate(271,23)"/>
<path d="M0 0 C10.8260013 5.43794535 20.38174203 13.66427589 25 25 C23.02 25.33 21.04 25.66 19 26 C18.64808594 25.50371094 18.29617187 25.00742188 17.93359375 24.49609375 C10.59101002 14.3928519 2.89991111 8.82034088 -8 3 C-7.67 2.01 -7.34 1.02 -7 0 C-4.24754027 -1.37622986 -2.94142181 -0.81304134 0 0 Z " fill="#F8F8F8" transform="translate(116,98)"/>
<path d="M0 0 C-0.2784375 0.928125 -0.2784375 0.928125 -0.5625 1.875 C-1.23686176 4.04160178 -1.23686176 4.04160178 0 6 C-2.4965744 7.13315391 -4.99683772 8.25656579 -7.5 9.375 C-8.19609375 9.69210938 -8.8921875 10.00921875 -9.609375 10.3359375 C-16.3712874 13.3412319 -22.82465713 15.28336442 -30.3125 15.3125 C-31.82263672 15.33763672 -31.82263672 15.33763672 -33.36328125 15.36328125 C-36 15 -36 15 -37.85546875 13.66796875 C-39 12 -39 12 -39 9 C-37.38544922 8.96132812 -37.38544922 8.96132812 -35.73828125 8.921875 C-23.42601455 8.49580093 -10.64573746 0 0 0 Z " fill="#B3C2F0" transform="translate(121,192)"/>
<path d="M0 0 C8.04052111 0 13.06733366 3.80431085 19 9 C21.390625 11.578125 21.390625 11.578125 23 14 C22.67 14.99 22.34 15.98 22 17 C21.67 16.34 21.34 15.68 21 15 C21.144375 15.721875 21.28875 16.44375 21.4375 17.1875 C21.95833333 19.79166667 22.47916667 22.39583333 23 25 C20.88970185 22.96506964 19.03472886 21.05075757 17.375 18.625 C13.86410267 14.74453453 9.51201169 12.56860766 5 10 C2 8 2 8 0 6 C-0.125 2.875 -0.125 2.875 0 0 Z " fill="#151515" transform="translate(301,239)"/>
<path d="M0 0 C2.8125 0.9375 2.8125 0.9375 6 3 C7.06933638 5.25189662 7.73267596 7.43336909 8.359375 9.84375 C8.96318477 12.26410338 8.96318477 12.26410338 11 15 C11 17.31 11 19.62 11 22 C6.38 22 1.76 22 -3 22 C-1.125 10.25 -1.125 10.25 0 8 C0.0689472 6.62657169 0.08467708 5.24997898 0.0625 3.875 C0.041875 2.59625 0.02125 1.3175 0 0 Z " fill="#AFB8D3" transform="translate(330,278)"/>
<path d="M0 0 C4.08312028 0.93571506 5.600536 2.27008158 8 5.6875 C8.06641554 9.53960127 7.87229157 11.68598005 5.3125 14.625 C2.26397123 16.02567538 0.32073048 16.1717732 -3 15.6875 C-5.6104669 13.7825647 -6.74830125 12.25012074 -8.0625 9.3125 C-8 6.6875 -8 6.6875 -5.9375 3.375 C-3 0.6875 -3 0.6875 0 0 Z " fill="#879DD0" transform="translate(90,141.3125)"/>
<path d="M0 0 C0.66 0 1.32 0 2 0 C2 11.55 2 23.1 2 35 C1.01 35 0.02 35 -1 35 C-1 33.68 -1 32.36 -1 31 C-1.99 31 -2.98 31 -4 31 C-4 22.42 -4 13.84 -4 5 C-3.01 5 -2.02 5 -1 5 C-0.67 3.35 -0.34 1.7 0 0 Z " fill="#6C8CFB" transform="translate(153,49)"/>
<path d="M0 0 C0.99 0 1.98 0 3 0 C3 11.88 3 23.76 3 36 C2.01 36 1.02 36 0 36 C-0.12375 35.195625 -0.2475 34.39125 -0.375 33.5625 C-0.58125 32.716875 -0.7875 31.87125 -1 31 C-1.66 30.67 -2.32 30.34 -3 30 C-3 22.08 -3 14.16 -3 6 C-2.34 5.67 -1.68 5.34 -1 5 C-0.34444881 2.47266765 -0.34444881 2.47266765 0 0 Z " fill="#6184FB" transform="translate(193,48)"/>
<path d="M0 0 C1.6254308 0.14095064 3.25034051 0.28792087 4.875 0.4375 C5.77992188 0.51871094 6.68484375 0.59992188 7.6171875 0.68359375 C10 1 10 1 12 2 C11.57835981 3.98260599 11.13721222 5.96107245 10.6875 7.9375 C10.44386719 9.03964844 10.20023438 10.14179688 9.94921875 11.27734375 C9.63597656 12.17582031 9.32273438 13.07429687 9 14 C5.61993106 15.12668965 5.0359269 14.89636912 1.875 13.625 C1.17117187 13.34914062 0.46734375 13.07328125 -0.2578125 12.7890625 C-2 12 -2 12 -3 11 C-3.42407099 6.33521915 -2.69319525 3.81535994 0 0 Z " fill="#14203C" transform="translate(190,163)"/>
<path d="M0 0 C0.99 0.33 1.98 0.66 3 1 C2.80664062 1.61746094 2.61328125 2.23492187 2.4140625 2.87109375 C-0.21372189 11.41789744 -2.13296248 19.47365833 -2.65625 28.421875 C-3.02772151 31.20791133 -3.85880462 33.44151358 -5 36 C-5.66 35.67 -6.32 35.34 -7 35 C-7.88740765 10.71233537 -7.88740765 10.71233537 -3 2 C-2.01 1.34 -1.02 0.68 0 0 Z " fill="#FBFBFC" transform="translate(39,125)"/>
<path d="M0 0 C0.8971875 0.99 0.8971875 0.99 1.8125 2 C8.45381817 8.6036903 16.24517991 13.71424036 25 17 C24.67 18.32 24.34 19.64 24 21 C21.3394874 22.0356774 20.23491735 22.08841771 17.51953125 21.06640625 C4.48051948 13.82251082 4.48051948 13.82251082 0 8 C-0.73607081 4.96241199 -0.50567537 3.14642452 0 0 Z " fill="#B3C3F4" transform="translate(47,181)"/>
<path d="M0 0 C4.24982159 1.13874379 6.01001324 2.91556089 8.28320312 6.65039062 C8.79270508 7.53500977 8.79270508 7.53500977 9.3125 8.4375 C9.67150391 9.02337891 10.03050781 9.60925781 10.40039062 10.21289062 C12.07285154 13.01943933 13 14.67898181 13 18 C13.66 18.33 14.32 18.66 15 19 C13.71475739 19.86380259 12.42157581 20.71580369 11.125 21.5625 C10.40570313 22.03816406 9.68640625 22.51382812 8.9453125 23.00390625 C8.30335938 23.33261719 7.66140625 23.66132813 7 24 C6.34 23.67 5.68 23.34 5 23 C4.23701632 20.32955712 3.58837036 17.70924027 3 15 C2.82339844 14.23429687 2.64679688 13.46859375 2.46484375 12.6796875 C1.50176202 8.47066365 0.65688482 4.26975135 0 0 Z " fill="#546281" transform="translate(321,253)"/>
<path d="M0 0 C6.25378319 -0.39086145 11.84661392 0.25144051 16.734375 4.51171875 C22.40838908 10.76156099 24.36735812 16.69060474 24.10546875 25.05859375 C24.07066406 25.69925781 24.03585937 26.33992188 24 27 C24.99 27.33 25.98 27.66 27 28 C27 28.99 27 29.98 27 31 C26.34 31 25.68 31 25 31 C24.67 32.32 24.34 33.64 24 35 C22.49609375 33.91796875 22.49609375 33.91796875 21 32 C20.84765625 28.92578125 20.84765625 28.92578125 21.0625 25.3125 C21.18597938 19.32992428 20.90178138 14.7179133 17 10 C13.27089571 6.46785544 10.19292761 5.2611975 5.1875 4.25 C4.02605469 4.00765625 2.86460937 3.7653125 1.66796875 3.515625 C0.34732422 3.26039063 0.34732422 3.26039063 -1 3 C-0.67 2.01 -0.34 1.02 0 0 Z " fill="#293C62" transform="translate(232,146)"/>
<path d="M0 0 C0.66 0.33 1.32 0.66 2 1 C2 16.18 2 31.36 2 47 C1.01 47 0.02 47 -1 47 C-1.02527002 40.46721214 -1.04283292 33.93443679 -1.05493164 27.40161133 C-1.05997317 25.17732268 -1.06680623 22.95303737 -1.07543945 20.72875977 C-1.08751298 17.53921691 -1.09322996 14.34971771 -1.09765625 11.16015625 C-1.10281754 10.15912369 -1.10797882 9.15809113 -1.11329651 8.12672424 C-1.11337204 7.20584518 -1.11344757 6.28496613 -1.11352539 5.33618164 C-1.115746 4.52121719 -1.11796661 3.70625275 -1.12025452 2.86659241 C-1 1 -1 1 0 0 Z " fill="#6688F8" transform="translate(157,43)"/>
<path d="M0 0 C2 2 2 2 2.3125 5 C2.17433258 10.46912695 0.43886845 16.1222631 -2 21 C-3.65 20.67 -5.3 20.34 -7 20 C-8.40609911 13.99212199 -7.59268688 9.6079703 -5 4 C-4.34 3.34 -3.68 2.68 -3 2 C-2.01 2 -1.02 2 0 2 C0 1.34 0 0.68 0 0 Z " fill="#010305" transform="translate(222,174)"/>
<path d="M0 0 C5.61 0 11.22 0 17 0 C17 2.64 17 5.28 17 8 C11.39 8 5.78 8 0 8 C0 5.36 0 2.72 0 0 Z " fill="#FEFEFE" transform="translate(47,292)"/>
<path d="M0 0 C6.20297353 0.38076288 12.02466346 1.92410127 18 3.5625 C18.87011719 3.79646484 19.74023438 4.03042969 20.63671875 4.27148438 C22.75914728 4.84290744 24.88013594 5.41914957 27 6 C26.01 6.66 25.02 7.32 24 8 C20.63911848 7.14869492 17.47916665 5.94636015 14.2265625 4.75 C10.50351296 3.88459381 9.27014528 4.12359823 6 6 C3.73819384 7.6947059 3.73819384 7.6947059 1.6875 9.625 C0.64142578 10.57246094 0.64142578 10.57246094 -0.42578125 11.5390625 C-0.94527344 12.02117188 -1.46476563 12.50328125 -2 13 C-0.75108386 13.48198463 0.49918808 13.96045677 1.75 14.4375 C2.44609375 14.70433594 3.1421875 14.97117187 3.859375 15.24609375 C5.89059003 15.96146693 7.9035291 16.51365652 10 17 C10 17.66 10 18.32 10 19 C8.06213915 18.52229477 6.12472326 18.04278429 4.1875 17.5625 C3.10855469 17.29566406 2.02960938 17.02882813 0.91796875 16.75390625 C-1.0740843 16.23922588 -3.04811524 15.65062825 -5 15 C-4.55065113 12.87308203 -4.09023527 10.74849961 -3.625 8.625 C-3.36976563 7.44164062 -3.11453125 6.25828125 -2.8515625 5.0390625 C-2 2 -2 2 0 0 Z " fill="#181818" transform="translate(249,17)"/>
<path d="M0 0 C2.70470147 0.9774886 5.3795426 1.43968495 8.2265625 1.8046875 C7.8965625 4.1146875 7.5665625 6.4246875 7.2265625 8.8046875 C-0.1292172 9.80774837 -5.4677254 6.28370108 -11.7734375 2.8046875 C-11.7734375 1.8146875 -11.7734375 0.8246875 -11.7734375 -0.1953125 C-7.29000715 -2.94322142 -4.5714574 -1.72767454 0 0 Z " fill="#0F0F12" transform="translate(60.7734375,267.1953125)"/>
<path d="M0 0 C0.99 0 1.98 0 3 0 C3 13.86 3 27.72 3 42 C2.01 42 1.02 42 0 42 C0 28.14 0 14.28 0 0 Z " fill="#6286F8" transform="translate(167,46)"/>
<path d="M0 0 C0 0.66 0 1.32 0 2 C-0.99 2.495 -0.99 2.495 -2 3 C-2.40729228 5.32156597 -2.74438677 7.6568787 -3 10 C-2.34 10 -1.68 10 -1 10 C-1 10.66 -1 11.32 -1 12 C-8.92 15.96 -8.92 15.96 -17 20 C-15 16 -15 16 -12.9375 15.1875 C-12.298125 14.795625 -11.65875 14.40375 -11 14 C-10.18129815 10.43793339 -10.18129815 10.43793339 -10 7 C-11.65 7.33 -13.3 7.66 -15 8 C-15 7.34 -15 6.68 -15 6 C-12.87717331 4.99539469 -10.75166979 3.99644398 -8.625 3 C-7.44164062 2.443125 -6.25828125 1.88625 -5.0390625 1.3125 C-2 0 -2 0 0 0 Z " fill="#050505" transform="translate(263,242)"/>
<path d="M0 0 C0.99 0.495 0.99 0.495 2 1 C2 1.66 2 2.32 2 3 C4.97 3 7.94 3 11 3 C11.433125 3.9075 11.86625 4.815 12.3125 5.75 C13.70517271 8.43218449 15.11112757 10.66139605 17 13 C15.35 13.33 13.7 13.66 12 14 C12 14.66 12 15.32 12 16 C8.90989789 14.64891639 7.03089847 13.20982067 4.875 10.625 C4.12863281 9.74714844 4.12863281 9.74714844 3.3671875 8.8515625 C1.12378822 5.8133589 0 3.82244029 0 0 Z " fill="#050505" transform="translate(37,253)"/>
<path d="M0 0 C1.65 0.33 3.3 0.66 5 1 C5.33 1.99 5.66 2.98 6 4 C5.34 4.66 4.68 5.32 4 6 C4 5.34 4 4.68 4 4 C0.03167142 5.87393294 -2.2076061 8.05276927 -4.28515625 11.94921875 C-5.55243681 15.5848597 -5.30965398 19.20673868 -5 23 C-6.65 23 -8.3 23 -10 23 C-10.55916024 15.31154665 -8.84644755 9.43248087 -3.875 3.4375 C-2 2 -2 2 0 2 C0 1.34 0 0.68 0 0 Z " fill="#4F689E" transform="translate(246,175)"/>
<path d="M0 0 C0 0.66 0 1.32 0 2 C-0.7425 2.515625 -1.485 3.03125 -2.25 3.5625 C-7.65951329 8.35729587 -9.40226975 14.97666957 -10 22 C-10.66 22 -11.32 22 -12 22 C-14.10327372 17.79345257 -13.53596913 12.56738909 -13 8 C-10.06181593 1.50968294 -6.8731262 -0.14941579 0 0 Z " fill="#0C1228" transform="translate(246,175)"/>
<path d="M0 0 C0.66 0 1.32 0 2 0 C2 6.93 2 13.86 2 21 C1.01 21 0.02 21 -1 21 C-1 19.35 -1 17.7 -1 16 C-1.99 16 -2.98 16 -4 16 C-4 12.37 -4 8.74 -4 5 C-3.01 5 -2.02 5 -1 5 C-0.67 3.35 -0.34 1.7 0 0 Z " fill="#6887FA" transform="translate(125,55)"/>
<path d="M0 0 C2.31 1.98 4.62 3.96 7 6 C7.804375 6.598125 8.60875 7.19625 9.4375 7.8125 C11.90733198 11.27026477 11.31639951 14.88680631 11 19 C10.34 19.33 9.68 19.66 9 20 C9 17.03 9 14.06 9 11 C6.36 10.67 3.72 10.34 1 10 C1 12.97 1 15.94 1 19 C0.67 19 0.34 19 0 19 C0 12.73 0 6.46 0 0 Z " fill="#030304" transform="translate(35,192)"/>
<path d="M0 0 C0.33 0 0.66 0 1 0 C1 12.54 1 25.08 1 38 C0.67 38 0.34 38 0 38 C-0.33 33.71 -0.66 29.42 -1 25 C-1.99 25 -2.98 25 -4 25 C-4 21.37 -4 17.74 -4 14 C-3.01 14 -2.02 14 -1 14 C-0.67 9.38 -0.34 4.76 0 0 Z " fill="#5577FC" transform="translate(181,47)"/>
<path d="M0 0 C5.94 0 11.88 0 18 0 C18.33 0.99 18.66 1.98 19 3 C18.67 3.66 18.34 4.32 18 5 C15.93816367 5.08150744 13.87538651 5.1394194 11.8125 5.1875 C10.08966797 5.23970703 10.08966797 5.23970703 8.33203125 5.29296875 C4.70842376 4.97436317 2.85360856 4.21947332 0 2 C0 1.34 0 0.68 0 0 Z " fill="#E1E9FC" transform="translate(52,262)"/>
<path d="M0 0 C3.82675111 1.55904675 6.18007783 4.03166087 9 7 C9.66 7.66 10.32 8.32 11 9 C10.67 9.99 10.34 10.98 10 12 C9.67 11.34 9.34 10.68 9 10 C9.2165625 11.0828125 9.2165625 11.0828125 9.4375 12.1875 C9.95833333 14.79166667 10.47916667 17.39583333 11 20 C8.78358334 17.86274108 6.78762592 15.73140926 4.875 13.3125 C3.20909046 10.93242212 3.20909046 10.93242212 1 10 C1.03255208 7.98177083 1.06510417 5.96354167 1.09765625 3.9453125 C1.12649242 1.91814596 1.12649242 1.91814596 0 0 Z " fill="#0A0A0A" transform="translate(313,244)"/>
<path d="M0 0 C-0.99 0.33 -1.98 0.66 -3 1 C-7.83819101 8.04993547 -7.42159336 14.66182028 -7 23 C-8.32 22.34 -9.64 21.68 -11 21 C-11.51600956 13.47772729 -11.80220312 7.67207219 -7.2890625 1.390625 C-4.78580826 -1.30985533 -3.32823495 -0.99847049 0 0 Z " fill="#4D628F" transform="translate(217,173)"/>
<path d="M0 0 C3.3 0.33 6.6 0.66 10 1 C9.01 1.33 8.02 1.66 7 2 C7 3.98 7 5.96 7 8 C7.99 8.33 8.98 8.66 10 9 C10 9.33 10 9.66 10 10 C6.7 9.67 3.4 9.34 0 9 C0 6.03 0 3.06 0 0 Z " fill="#090909" transform="translate(294,237)"/>
<path d="M0 0 C2.97 0.495 2.97 0.495 6 1 C7.27253436 4.64793184 8.32829194 8.1936543 9 12 C6.69 11.67 4.38 11.34 2 11 C0 3.375 0 3.375 0 0 Z " fill="#F0F0F0" transform="translate(37,245)"/>
<path d="M0 0 C0.99 0 1.98 0 3 0 C3 3.96 3 7.92 3 12 C2.01 12.33 1.02 12.66 0 13 C0 19.6 0 26.2 0 33 C-0.33 33 -0.66 33 -1 33 C-1.02469081 28.6217488 -1.04285557 24.24353433 -1.05493164 19.86523438 C-1.05996514 18.37531834 -1.06679242 16.88540726 -1.07543945 15.39550781 C-1.08754805 13.25584696 -1.09323807 11.11625132 -1.09765625 8.9765625 C-1.10289307 7.68830566 -1.10812988 6.40004883 -1.11352539 5.07275391 C-1 2 -1 2 0 0 Z " fill="#A5B9FB" transform="translate(186,60)"/>
<path d="M0 0 C2.31 0.33 4.62 0.66 7 1 C7 3.97 7 6.94 7 10 C5.00045254 10.04254356 2.99958364 10.04080783 1 10 C0 9 0 9 -0.09765625 6.93359375 C-0.08605469 6.10988281 -0.07445312 5.28617188 -0.0625 4.4375 C-0.05347656 3.61121094 -0.04445312 2.78492188 -0.03515625 1.93359375 C-0.02355469 1.29550781 -0.01195312 0.65742188 0 0 Z " fill="#FAFAFA" transform="translate(37,202)"/>
<path d="M0 0 C-0.12897169 6.190641 -2.24275129 8.99985641 -6.40625 13.49609375 C-8 15 -8 15 -9 15 C-8.59573665 9.13818137 -7.7971314 5.7176481 -4 1 C-2 0 -2 0 0 0 Z " fill="#2B3F69" transform="translate(251,182)"/>
<path d="M0 0 C4.76704477 1.76557214 7.49174438 5.61365036 10.140625 9.8046875 C11.27762457 12.7092046 11.19256475 15.14202142 11.125 18.25 C11.10695313 19.32765625 11.08890625 20.4053125 11.0703125 21.515625 C11.04710937 22.33546875 11.02390625 23.1553125 11 24 C10.01 23.67 9.02 23.34 8 23 C7.87044922 21.7315625 7.87044922 21.7315625 7.73828125 20.4375 C6.82495933 13.06389181 5.46774115 7.93104313 1 2 C0.67 1.34 0.34 0.68 0 0 Z " fill="#0E1C33" transform="translate(248,150)"/>
<path d="M0 0 C2.97 0.495 2.97 0.495 6 1 C6 4.3 6 7.6 6 11 C3.03 10.505 3.03 10.505 0 10 C0 6.7 0 3.4 0 0 Z " fill="#F9F9F9" transform="translate(37,223)"/>
<path d="M0 0 C2 1 2 1 2.74609375 3.23046875 C3.04792659 6.52276852 2.38585071 8.30488476 1.0625 11.3125 C0.68222656 12.19550781 0.30195313 13.07851562 -0.08984375 13.98828125 C-0.39019531 14.65214844 -0.69054687 15.31601563 -1 16 C-3 14 -3 14 -3.23046875 11.9765625 C-3.21628906 11.20054687 -3.20210937 10.42453125 -3.1875 9.625 C-3.18105469 8.85414063 -3.17460937 8.08328125 -3.16796875 7.2890625 C-3.00366774 5.04998362 -2.73396304 3.12241542 -2 1 C-1.34 0.67 -0.68 0.34 0 0 Z " fill="#F5F5F6" transform="translate(228,207)"/>
<path d="M0 0 C0.99 0 1.98 0 3 0 C3.33 0.99 3.66 1.98 4 3 C3.38511719 3.25136719 2.77023438 3.50273437 2.13671875 3.76171875 C-1.42994651 5.8286893 -2.5141154 9.28173376 -4 13 C-4.76754832 15.81448914 -4.76754832 15.81448914 -5 18 C-5.66 18 -6.32 18 -7 18 C-7.61187657 11.14698242 -6.19904786 7.42058906 -2 2 C-1.34 1.34 -0.68 0.68 0 0 Z " fill="#D5E3FA" transform="translate(247,179)"/>
<path d="M0 0 C1.32 0 2.64 0 4 0 C3.57835981 1.98260599 3.13721222 3.96107245 2.6875 5.9375 C2.44386719 7.03964844 2.20023438 8.14179688 1.94921875 9.27734375 C1.63597656 10.17582031 1.32273438 11.07429687 1 12 C0.01 12.33 -0.98 12.66 -2 13 C-2.66 12.34 -3.32 11.68 -4 11 C-3.828125 8.90625 -3.828125 8.90625 -3.25 6.5 C-3.06953125 5.7059375 -2.8890625 4.911875 -2.703125 4.09375 C-2 2 -2 2 0 0 Z " fill="#0A0B0D" transform="translate(198,165)"/>
<path d="M0 0 C5.875 2.75 5.875 2.75 7 5 C7.039992 6.99960012 7.04346799 9.00047242 7 11 C1.125 9.125 1.125 9.125 0 8 C-0.14115161 5.32941149 -0.04247107 2.67567762 0 0 Z " fill="#F7F8FA" transform="translate(330,278)"/>
<path d="M0 0 C1.65 0.33 3.3 0.66 5 1 C5.33 1.99 5.66 2.98 6 4 C5.34 4.66 4.68 5.32 4 6 C4 5.34 4 4.68 4 4 C3.278125 4.433125 2.55625 4.86625 1.8125 5.3125 C0.884375 5.869375 -0.04375 6.42625 -1 7 C-2.3303125 7.86625 -2.3303125 7.86625 -3.6875 8.75 C-4.450625 9.1625 -5.21375 9.575 -6 10 C-6.66 9.67 -7.32 9.34 -8 9 C-7.04882866 7.8274869 -6.08882991 6.66212985 -5.125 5.5 C-4.32449219 4.52546875 -4.32449219 4.52546875 -3.5078125 3.53125 C-2.76144531 2.77328125 -2.76144531 2.77328125 -2 2 C-1.34 2 -0.68 2 0 2 C0 1.34 0 0.68 0 0 Z " fill="#4E618B" transform="translate(246,175)"/>
<path d="M0 0 C-0.61488281 0.44730469 -1.22976562 0.89460937 -1.86328125 1.35546875 C-7.92159294 5.79238333 -7.92159294 5.79238333 -12 12 C-12.99 11.67 -13.98 11.34 -15 11 C-13.60991124 5.74855359 -10.1957125 3.12699328 -6 0 C-3.50907189 -1.24546405 -2.58919267 -0.7767578 0 0 Z " fill="#060607" transform="translate(231,151)"/>
<path d="M0 0 C2.4375 0.1875 2.4375 0.1875 3.4375 1.1875 C3.625 3.625 3.625 3.625 3.4375 6.1875 C2.7775 6.8475 2.1175 7.5075 1.4375 8.1875 C-1.1875 7.8125 -1.1875 7.8125 -3.5625 7.1875 C-4.1875 4.8125 -4.1875 4.8125 -4.5625 2.1875 C-2.5625 0.1875 -2.5625 0.1875 0 0 Z " fill="#07080A" transform="translate(90.5625,145.8125)"/>
<path d="M0 0 C0.3125 2.8125 0.3125 2.8125 0 6 C-2.38892501 7.88599343 -3.91851558 9 -7 9 C-7 6.69 -7 4.38 -7 2 C-4.35261084 0.5393715 -3.10551666 0 0 0 Z " fill="#F5F5F4" transform="translate(267,243)"/>
<path d="M0 0 C0 2.31 0 4.62 0 7 C-1.98 7.99 -3.96 8.98 -6 10 C-6.29296875 3.9453125 -6.29296875 3.9453125 -6 2 C-3 0 -3 0 0 0 Z " fill="#E6E7E8" transform="translate(253,249)"/>
<path d="M0 0 C0.33 0 0.66 0 1 0 C1 3.3 1 6.6 1 10 C1.99 10.33 2.98 10.66 4 11 C4 11.99 4 12.98 4 14 C3.34 14 2.68 14 2 14 C1.67 15.32 1.34 16.64 1 18 C-0.5 16.875 -0.5 16.875 -2 15 C-2.61344006 9.8471035 -1.23782213 4.97339249 0 0 Z " fill="#222E52" transform="translate(255,163)"/>
<path d="M0 0 C6.75 5.625 6.75 5.625 9 9 C6.03 9 3.06 9 0 9 C0 6.03 0 3.06 0 0 Z " fill="#F1F4FC" transform="translate(178,291)"/>
<path d="M0 0 C0.66 0.33 1.32 0.66 2 1 C-2.60136502 6.53601728 -7.46398272 11.39863498 -13 16 C-13 13 -13 13 -11.80664062 11.46606445 C-11.26201172 10.937146 -10.71738281 10.40822754 -10.15625 9.86328125 C-9.56972656 9.28642578 -8.98320312 8.70957031 -8.37890625 8.11523438 C-7.75886719 7.52033203 -7.13882812 6.92542969 -6.5 6.3125 C-5.87996094 5.70599609 -5.25992187 5.09949219 -4.62109375 4.47460938 C-3.08735293 2.97626257 -1.54451802 1.48723507 0 0 Z " fill="#808394" transform="translate(324,277)"/>
<path d="M0 0 C2.64 0.66 5.28 1.32 8 2 C8 2.33 8 2.66 8 3 C6.35 3 4.7 3 3 3 C2.67 5.64 2.34 8.28 2 11 C1.01 11 0.02 11 -1 11 C-1.07622858 7.03611362 -0.9681648 3.8726592 0 0 Z " fill="#DB462D" transform="translate(153,182)"/>
<path d="M0 0 C5.23175837 -0.38281159 8.37802694 0.78145293 13 3 C12.01 3.99 11.02 4.98 10 6 C6.51329166 4.8905928 3.22515763 3.73662334 0 2 C0 1.34 0 0.68 0 0 Z " fill="#E8EDEF" transform="translate(49,267)"/>
<path d="M0 0 C1.2065625 0.0309375 1.2065625 0.0309375 2.4375 0.0625 C2.4375 2.0425 2.4375 4.0225 2.4375 6.0625 C0.4575 6.3925 -1.5225 6.7225 -3.5625 7.0625 C-3.60504356 5.06295254 -3.60330783 3.06208364 -3.5625 1.0625 C-2.5625 0.0625 -2.5625 0.0625 0 0 Z " fill="#F5F6F5" transform="translate(278.5625,238.9375)"/>
<path d="M0 0 C1.98 0 3.96 0 6 0 C6.33 1.98 6.66 3.96 7 6 C5.00045254 6.04254356 2.99958364 6.04080783 1 6 C0 5 0 5 -0.0625 2.4375 C-0.041875 1.633125 -0.02125 0.82875 0 0 Z " fill="#EBEBEB" transform="translate(288,238)"/>
<path d="M0 0 C3.77300358 1.0197307 4.80206144 1.65872662 6.8125 5.125 C7.204375 6.07375 7.59625 7.0225 8 8 C6.02 8 4.04 8 2 8 C0.23537317 4.91190305 0 3.76687864 0 0 Z " fill="#787F8C" transform="translate(321,253)"/>
<path d="M0 0 C3.47548539 3.24378636 5.82682259 5.71405824 6.1953125 10.578125 C6.16050781 11.90070313 6.16050781 11.90070313 6.125 13.25 C6.10695312 14.14203125 6.08890625 15.0340625 6.0703125 15.953125 C6.03550781 16.96632812 6.03550781 16.96632812 6 18 C5.67 18 5.34 18 5 18 C4.90203125 17.43152344 4.8040625 16.86304688 4.703125 16.27734375 C3.90187237 12.13984097 3.01984557 8.68285225 0.8125 5.0625 C0.214375 4.051875 -0.38375 3.04125 -1 2 C-0.67 1.34 -0.34 0.68 0 0 Z " fill="#2B416F" transform="translate(249,152)"/>
<path d="M0 0 C1.65 0.33 3.3 0.66 5 1 C4.67 2.65 4.34 4.3 4 6 C2.35 5.67 0.7 5.34 -1 5 C-0.67 3.35 -0.34 1.7 0 0 Z " fill="#0F1012" transform="translate(103,150)"/>
<path d="M0 0 C2.0625 0.4375 2.0625 0.4375 4 1 C3.67 2.65 3.34 4.3 3 6 C1.35 5.67 -0.3 5.34 -2 5 C-1.125 1.125 -1.125 1.125 0 0 Z " fill="#0F1011" transform="translate(96,159)"/>
<path d="M0 0 C2.475 0.495 2.475 0.495 5 1 C5.33 2.98 5.66 4.96 6 7 C4.02 6.34 2.04 5.68 0 5 C0 3.35 0 1.7 0 0 Z " fill="#EBEBEB" transform="translate(301,240)"/>
<path d="M0 0 C2.125 0.375 2.125 0.375 4 1 C3.67 2.65 3.34 4.3 3 6 C1.68 6 0.36 6 -1 6 C-1.625 4.125 -1.625 4.125 -2 2 C-1.34 1.34 -0.68 0.68 0 0 Z " fill="#0B0B0D" transform="translate(79,136)"/>
<path d="M0 0 C1.65 0.33 3.3 0.66 5 1 C4.6875 2.9375 4.6875 2.9375 4 5 C3.01 5.33 2.02 5.66 1 6 C0.34 5.67 -0.32 5.34 -1 5 C-0.67 3.35 -0.34 1.7 0 0 Z " fill="#7D93C3" transform="translate(91,133)"/>
<path d="M0 0 C2.0625 0.4375 2.0625 0.4375 4 1 C4 2.32 4 3.64 4 5 C2.68 5.33 1.36 5.66 0 6 C-0.38218767 4.34385343 -0.71395102 2.67542976 -1 1 C-0.67 0.67 -0.34 0.34 0 0 Z " fill="#070809" transform="translate(79,158)"/>
<path d="M0 0 C2.0625 0.4375 2.0625 0.4375 4 1 C4 2.32 4 3.64 4 5 C2.68 5.33 1.36 5.66 0 6 C-0.38218767 4.34385343 -0.71395102 2.67542976 -1 1 C-0.67 0.67 -0.34 0.34 0 0 Z " fill="#7B92C2" transform="translate(101,139)"/>
<path d="M0 0 C3.27779873 3.27779873 3.40494034 3.8360813 3.6875 8.1875 C3.75324219 9.08855469 3.81898438 9.98960937 3.88671875 10.91796875 C3.92410156 11.60503906 3.96148437 12.29210937 4 13 C2.68 12.34 1.36 11.68 0 11 C0 7.37 0 3.74 0 0 Z " fill="#3E507E" transform="translate(206,183)"/>
<path d="M0 0 C2.5 1.25 2.5 1.25 5 3 C5 4.32 5 5.64 5 7 C3.68 6.67 2.36 6.34 1 6 C0.67 4.02 0.34 2.04 0 0 Z " fill="#F1F3F5" transform="translate(327,266)"/>
<path d="M0 0 C0.33 0 0.66 0 1 0 C1 3.96 1 7.92 1 12 C0.01 12 -0.98 12 -2 12 C-1.85962479 10.18706911 -1.71255111 8.3746557 -1.5625 6.5625 C-1.48128906 5.55316406 -1.40007812 4.54382813 -1.31640625 3.50390625 C-1 1 -1 1 0 0 Z " fill="#1833C4" transform="translate(84,254)"/>
<path d="M0 0 C2.5 1.125 2.5 1.125 5 3 C5.3125 6.1875 5.3125 6.1875 5 9 C2.5 6.75 2.5 6.75 0 4 C0 2.68 0 1.36 0 0 Z " fill="#DFDFDF" transform="translate(310,243)"/>
<path d="M0 0 C0 2.97 0 5.94 0 9 C-0.66 7.68 -1.32 6.36 -2 5 C-3.3050581 3.31110128 -4.63360658 1.6396721 -6 0 C-4 -1 -4 -1 0 0 Z " fill="#BEC5DC" transform="translate(44,203)"/>
<path d="M0 0 C0.99 0.33 1.98 0.66 3 1 C3 2.65 3 4.3 3 6 C1.35 5.67 -0.3 5.34 -2 5 C-2 3.68 -2 2.36 -2 1 C-1.34 0.67 -0.68 0.34 0 0 Z " fill="#7E94C2" transform="translate(75,147)"/>
<path d="M0 0 C0.33 0.99 0.66 1.98 1 3 C0.38125 3.28875 -0.2375 3.5775 -0.875 3.875 C-3.13325765 4.93720042 -3.13325765 4.93720042 -5 7 C-5.66 6.01 -6.32 5.02 -7 4 C-3.375 0 -3.375 0 0 0 Z " fill="#C3D2F0" transform="translate(250,179)"/>
<path d="M0 0 C1.98 0.66 3.96 1.32 6 2 C5.34 3.32 4.68 4.64 4 6 C2.0625 5.6875 2.0625 5.6875 0 5 C-0.33 4.01 -0.66 3.02 -1 2 C-0.67 1.34 -0.34 0.68 0 0 Z " fill="#232F47" transform="translate(213,161)"/>
<path d="M0 0 C0.33 0 0.66 0 1 0 C1.3690205 12.66970387 1.3690205 12.66970387 -1 18 C-1.66 17.34 -2.32 16.68 -3 16 C-2.68289062 15.29488281 -2.36578125 14.58976563 -2.0390625 13.86328125 C-0.95461714 10.87494121 -0.6035641 8.34930342 -0.375 5.1875 C-0.26285156 3.72376953 -0.26285156 3.72376953 -0.1484375 2.23046875 C-0.09945312 1.49441406 -0.05046875 0.75835937 0 0 Z " fill="#C6CDD9" transform="translate(36,145)"/>
<path d="M0 0 C0.99 0.99 1.98 1.98 3 3 C-1.455 3.495 -1.455 3.495 -6 4 C-6.33 3.01 -6.66 2.02 -7 1 C-4.45132831 -0.27433584 -2.82594567 -0.27570202 0 0 Z " fill="#141F37" transform="translate(233,147)"/>
<path d="M0 0 C0.99 0 1.98 0 3 0 C3 2.31 3 4.62 3 7 C2.01 7 1.02 7 0 7 C0 4.69 0 2.38 0 0 Z " fill="#6E89FC" transform="translate(117,62)"/>
<path d="M0 0 C2 2 2 2 2.125 4.625 C2.08375 5.40875 2.0425 6.1925 2 7 C1.01 7 0.02 7 -1 7 C-1.04254356 5.00045254 -1.04080783 2.99958364 -1 1 C-0.67 0.67 -0.34 0.34 0 0 Z " fill="#5B70A2" transform="translate(238,190)"/>
<path d="M0 0 C0.66 0 1.32 0 2 0 C2.33 2.64 2.66 5.28 3 8 C2.01 7.67 1.02 7.34 0 7 C0 4.69 0 2.38 0 0 Z " fill="#071128" transform="translate(256,166)"/>
<path d="M0 0 C0.99 0 1.98 0 3 0 C3.33 1.32 3.66 2.64 4 4 C2.35 4 0.7 4 -1 4 C-0.67 2.68 -0.34 1.36 0 0 Z " fill="#E3E9F8" transform="translate(36,258)"/>
<path d="M0 0 C0 2.31 0 4.62 0 7 C-0.66 7 -1.32 7 -2 7 C-2.33 5.02 -2.66 3.04 -3 1 C-1 0 -1 0 0 0 Z " fill="#0F0E1A" transform="translate(236,190)"/>
</svg>
