<?xml version="1.0" encoding="UTF-8"?>
<svg version="1.1" xmlns="http://www.w3.org/2000/svg" width="400" height="300">
<path d="M0 0 C132 0 264 0 400 0 C400 99 400 198 400 300 C268 300 136 300 0 300 C0 201 0 102 0 0 Z " fill="#FAFBF9" transform="translate(0,0)"/>
<path d="M0 0 C0.66 0 1.32 0 2 0 C2.43054688 0.73863281 2.86109375 1.47726563 3.3046875 2.23828125 C5.21965131 5.35781907 7.21367784 6.9933986 10.125 9.1875 C14.90548425 12.81096849 14.90548425 12.81096849 16 15 C16.99 12.03 17.98 9.06 19 6 C22.41735582 7.70867791 25.74083057 9.4898394 29.0625 11.375 C30.10535156 11.96023437 31.14820312 12.54546875 32.22265625 13.1484375 C36.80061637 16.20041091 38.33147564 19.33845666 39.75390625 24.578125 C40.05103516 25.65707031 40.34816406 26.73601562 40.65429688 27.84765625 C40.95400391 28.97042969 41.25371094 30.09320313 41.5625 31.25 C41.86607422 32.35730469 42.16964844 33.46460938 42.48242188 34.60546875 C43.33598487 37.7333401 44.17134423 40.86545119 45 44 C45.21769043 44.80501953 45.43538086 45.61003906 45.65966797 46.43945312 C46.54141022 49.78650639 47 52.50557227 47 56 C47.60585937 56.17015625 48.21171875 56.3403125 48.8359375 56.515625 C53.37454337 57.82832947 57.6826991 59.26184674 62 61.1875 C66.44871512 63.04991628 70.08950416 63.29836727 74.87109375 62.9453125 C77 63 77 63 80 65 C80.33 58.4 80.66 51.8 81 45 C79.68 44.34 78.36 43.68 77 43 C76.25 40.375 76.25 40.375 76 38 C77.485 38.99 77.485 38.99 79 40 C79 40.66 79 41.32 79 42 C83.03186901 42.35203685 83.03186901 42.35203685 87 42 C88.9354148 39.60943058 88.9354148 39.60943058 90 37 C90.66 37 91.32 37 92 37 C92.2165625 38.11375 92.2165625 38.11375 92.4375 39.25 C92.90031411 41.51264678 93.43986518 43.7594607 94 46 C90.7 45.67 87.4 45.34 84 45 C84 52.92 84 60.84 84 69 C86.64 69 89.28 69 92 69 C92.33 70.32 92.66 71.64 93 73 C105.87 73 118.74 73 132 73 C132.33 71.68 132.66 70.36 133 69 C135.31 69 137.62 69 140 69 C140 61.08 140 53.16 140 45 C135.02801942 44.97417882 135.02801942 44.97417882 131 47 C131 43.09567131 131.68373308 40.61973402 133 37 C133.66 37 134.32 37 135 37 C135.4125 37.825 135.825 38.65 136.25 39.5 C137.79183266 42.3230237 137.79183266 42.3230237 141 42.5625 C144.1003465 42.30122007 144.1003465 42.30122007 145.75 40 C146.36875 39.01 146.36875 39.01 147 38 C147.66 38 148.32 38 149 38 C148.4409112 41.24271506 147.5867822 42.93057424 145 45 C144.34 45 143.68 45 143 45 C143.33 51.6 143.66 58.2 144 65 C145.98 64.01 145.98 64.01 148 63 C149.97265625 63.19921875 149.97265625 63.19921875 152.0625 63.6875 C157.29403483 64.43363694 160.59410046 62.68471813 165.203125 60.34765625 C169.31788848 58.3649839 173.5980855 57.17448044 178 56 C178.12906738 54.98631348 178.25813477 53.97262695 178.39111328 52.92822266 C179.26661573 47.27993301 180.80564713 41.85992228 182.32861328 36.35644531 C182.87491497 34.37530834 183.408443 32.39101104 183.94140625 30.40625 C184.28816406 29.14554688 184.63492188 27.88484375 184.9921875 26.5859375 C185.46180908 24.86963135 185.46180908 24.86963135 185.94091797 23.11865234 C188.14454484 16.62968748 191.12151832 13.87254308 197.0625 10.6875 C197.69994141 10.32849609 198.33738281 9.96949219 198.99414062 9.59960938 C203.69324405 7 203.69324405 7 206 7 C205.79679696 8.93042884 205.59355281 10.86085336 205.39013672 12.79125977 C205.2114009 14.49089585 205.03335577 16.1906047 204.85595703 17.89038086 C204.39382599 22.30905211 203.92144936 26.72601894 203.421875 31.140625 C203.33019043 31.96651123 203.23850586 32.79239746 203.14404297 33.64331055 C202.97034623 35.20516263 202.79257897 36.76656989 202.60986328 38.32739258 C201.99742104 43.89913824 201.90799961 49.39746818 202 55 C202.69810577 50.91136949 203.39166689 46.82199981 204.08129883 42.73193359 C204.31577391 41.3450111 204.5514201 39.958286 204.78833008 38.57177734 C206.64035342 27.76160743 206.64035342 27.76160743 207.48071289 16.83349609 C208 15 208 15 210.03686523 13.74072266 C211.00861694 13.37406494 211.00861694 13.37406494 212 13 C212.66 13.66 213.32 14.32 214 15 C213.78043244 16.6222419 213.54993799 18.24371566 213.26611328 19.85595703 C212.7466857 24.04092313 213.17469104 28.24161901 213.4375 32.4375 C213.48970703 33.35982422 213.54191406 34.28214844 213.59570312 35.23242188 C213.72430016 37.48871536 213.8592071 39.74444029 214 42 C214.22139648 41.14881592 214.44279297 40.29763184 214.67089844 39.4206543 C215.50915901 36.20826705 216.35217137 32.99720055 217.19824219 29.78686523 C217.56077677 28.40746928 217.92150969 27.02759831 218.28027344 25.6472168 C220.45829935 17.27276802 222.84278004 9.07045761 226 1 C229.14890661 2.38896977 232.29350321 3.78745627 235.4375 5.1875 C236.31599609 5.57486328 237.19449219 5.96222656 238.09960938 6.36132812 C253.5727497 13.26999963 253.5727497 13.26999963 257.0625 17.5 C258.07290746 20.1944199 258.07122811 22.15087563 258 25 C258.83144531 24.96519531 259.66289062 24.93039063 260.51953125 24.89453125 C262.14955078 24.85392578 262.14955078 24.85392578 263.8125 24.8125 C264.89144531 24.77769531 265.97039062 24.74289063 267.08203125 24.70703125 C270 25 270 25 271.6940918 26.19018555 C273.52075699 28.72169967 273.16939585 30.17649695 272.8125 33.25 C272.63460937 34.85488281 272.63460937 34.85488281 272.453125 36.4921875 C272.30359375 37.64976562 272.1540625 38.80734375 272 40 C271.85046875 41.19882813 271.7009375 42.39765625 271.546875 43.6328125 C271.0559411 47.42567281 270.53275579 51.21280126 270 55 C269.82210938 56.29550781 269.64421875 57.59101563 269.4609375 58.92578125 C268.13334309 68.46662763 268.13334309 68.46662763 267 73 C241.755 73.495 241.755 73.495 216 74 C216 74.99 216 75.98 216 77 C164.19 77 112.38 77 59 77 C59 76.67 59 76.34 59 76 C61.64 75.67 64.28 75.34 67 75 C63.90049377 74.11126403 61.01495633 73.81456218 57.796875 73.68359375 C56.8171875 73.64169922 55.8375 73.59980469 54.828125 73.55664062 C53.81234375 73.51732422 52.7965625 73.47800781 51.75 73.4375 C50.71875 73.39431641 49.6875 73.35113281 48.625 73.30664062 C46.0834613 73.20074318 43.54182804 73.09866557 41 73 C40.74347656 72.23429687 40.48695313 71.46859375 40.22265625 70.6796875 C38.29532709 66.45557311 35.27278303 64.63328225 31 63 C27.86310202 62.83325459 25.05267156 63.30937659 22 64 C20.4840625 64.2784375 20.4840625 64.2784375 18.9375 64.5625 C17.9784375 64.7790625 17.9784375 64.7790625 17 65 C16.34 67.64 15.68 70.28 15 73 C-4.14 73 -23.28 73 -43 73 C-46.68406593 49.66758242 -46.68406593 49.66758242 -47.875 40 C-48.0296875 38.87078125 -48.184375 37.7415625 -48.34375 36.578125 C-48.47523437 35.50046875 -48.60671875 34.4228125 -48.7421875 33.3125 C-48.8644873 32.35988281 -48.98678711 31.40726563 -49.11279297 30.42578125 C-49 28 -49 28 -47.73950195 26.1862793 C-44.86103518 24.22326596 -41.66307769 24.69049017 -38.3125 24.8125 C-37.61060547 24.82603516 -36.90871094 24.83957031 -36.18554688 24.85351562 C-34.45670171 24.88879818 -32.72825235 24.94260417 -31 25 C-30.896875 24.278125 -30.79375 23.55625 -30.6875 22.8125 C-29.63249378 18.49656547 -28.2753557 15.83027851 -24.50390625 13.375 C-23.04791016 12.694375 -23.04791016 12.694375 -21.5625 12 C-20.50289062 11.49726562 -19.44328125 10.99453125 -18.3515625 10.4765625 C-14.11588245 8.61049366 -9.8304548 6.89666435 -5.49609375 5.2734375 C-2.75114938 3.87304335 -1.72900842 2.49103341 0 0 Z " fill="#8F97A3" transform="translate(88,113)"/>
<path d="M0 0 C0.66 0 1.32 0 2 0 C2.43054688 0.73863281 2.86109375 1.47726563 3.3046875 2.23828125 C5.21965131 5.35781907 7.21367784 6.9933986 10.125 9.1875 C14.90548425 12.81096849 14.90548425 12.81096849 16 15 C16.99 12.03 17.98 9.06 19 6 C22.41735582 7.70867791 25.74083057 9.4898394 29.0625 11.375 C30.10535156 11.96023437 31.14820312 12.54546875 32.22265625 13.1484375 C36.80061637 16.20041091 38.33147564 19.33845666 39.75390625 24.578125 C40.05103516 25.65707031 40.34816406 26.73601562 40.65429688 27.84765625 C40.95400391 28.97042969 41.25371094 30.09320313 41.5625 31.25 C41.86607422 32.35730469 42.16964844 33.46460938 42.48242188 34.60546875 C43.33598487 37.7333401 44.17134423 40.86545119 45 44 C45.21769043 44.80501953 45.43538086 45.61003906 45.65966797 46.43945312 C46.54141022 49.78650639 47 52.50557227 47 56 C47.60585937 56.17015625 48.21171875 56.3403125 48.8359375 56.515625 C55.05949532 58.31566942 61.02642961 60.49618433 67 63 C66.505 63.721875 66.01 64.44375 65.5 65.1875 C63.60784314 68.20404412 63.60784314 68.20404412 64 73 C56.41 73 48.82 73 41 73 C40.34 71.35 39.68 69.7 39 68 C36.07983216 65.10084056 32.80808795 63.09611099 28.6484375 62.875 C26.38243329 63.1175155 24.22177205 63.49735575 22 64 C20.4840625 64.2784375 20.4840625 64.2784375 18.9375 64.5625 C17.9784375 64.7790625 17.9784375 64.7790625 17 65 C16.34 67.64 15.68 70.28 15 73 C-4.14 73 -23.28 73 -43 73 C-46.68406593 49.66758242 -46.68406593 49.66758242 -47.875 40 C-48.0296875 38.87078125 -48.184375 37.7415625 -48.34375 36.578125 C-48.47523437 35.50046875 -48.60671875 34.4228125 -48.7421875 33.3125 C-48.8644873 32.35988281 -48.98678711 31.40726563 -49.11279297 30.42578125 C-49 28 -49 28 -47.73950195 26.1862793 C-44.86103518 24.22326596 -41.66307769 24.69049017 -38.3125 24.8125 C-37.61060547 24.82603516 -36.90871094 24.83957031 -36.18554688 24.85351562 C-34.45670171 24.88879818 -32.72825235 24.94260417 -31 25 C-30.896875 24.278125 -30.79375 23.55625 -30.6875 22.8125 C-29.63249378 18.49656547 -28.2753557 15.83027851 -24.50390625 13.375 C-23.04791016 12.694375 -23.04791016 12.694375 -21.5625 12 C-20.50289062 11.49726562 -19.44328125 10.99453125 -18.3515625 10.4765625 C-14.11588245 8.61049366 -9.8304548 6.89666435 -5.49609375 5.2734375 C-2.75114938 3.87304335 -1.72900842 2.49103341 0 0 Z " fill="#2788FA" transform="translate(88,113)"/>
<path d="M0 0 C1.21988617 0.00849724 1.21988617 0.00849724 2.4644165 0.01716614 C3.3477063 0.03370743 4.23099609 0.05024872 5.14105225 0.06729126 C6.54644257 0.08148354 6.54644257 0.08148354 7.98022461 0.09596252 C11.07537412 0.12962541 14.17012184 0.17774515 17.26507568 0.22598267 C19.41169181 0.25215129 21.5583191 0.27741818 23.70495605 0.30181885 C29.35380183 0.36845492 35.00241266 0.44735125 40.65106201 0.52877808 C46.41553737 0.60971249 52.1801505 0.67908372 57.94476318 0.74942017 C69.25482418 0.88912746 80.56467073 1.04178375 91.87445068 1.20254517 C93.5410381 6.2023074 93.09954145 11.41830281 93.11468506 16.65420532 C93.12441695 18.69546868 93.155467 20.73573559 93.18695068 22.77676392 C93.19468506 24.70455688 93.19468506 24.70455688 93.20257568 26.67129517 C93.21192139 27.85143188 93.22126709 29.0315686 93.230896 30.24746704 C92.87445068 33.20254517 92.87445068 33.20254517 91.35394287 35.11074829 C90.86571045 35.47104126 90.37747803 35.83133423 89.87445068 36.20254517 C87.89445068 35.54254517 85.91445068 34.88254517 83.87445068 34.20254517 C83.87445068 34.86254517 83.87445068 35.52254517 83.87445068 36.20254517 C79.91445068 35.87254517 75.95445068 35.54254517 71.87445068 35.20254517 C71.87445068 35.86254517 71.87445068 36.52254517 71.87445068 37.20254517 C70.22445068 37.20254517 68.57445068 37.20254517 66.87445068 37.20254517 C66.54445068 38.52254517 66.21445068 39.84254517 65.87445068 41.20254517 C65.21445068 40.87254517 64.55445068 40.54254517 63.87445068 40.20254517 C63.87445068 39.21254517 63.87445068 38.22254517 63.87445068 37.20254517 C60.15845878 37.00168074 59.10236623 37.05060147 55.87445068 39.20254517 C54.88445068 39.20254517 53.89445068 39.20254517 52.87445068 39.20254517 C52.87445068 40.52254517 52.87445068 41.84254517 52.87445068 43.20254517 C50.89445068 42.54254517 48.91445068 41.88254517 46.87445068 41.20254517 C46.87445068 40.54254517 46.87445068 39.88254517 46.87445068 39.20254517 C43.56330235 38.0737446 40.28466811 36.98951842 36.87445068 36.20254517 C36.33820068 37.17192017 35.80195068 38.14129517 35.24945068 39.14004517 C32.87445068 42.20254517 32.87445068 42.20254517 29.68695068 42.95254517 C28.75882568 43.03504517 27.83070068 43.11754517 26.87445068 43.20254517 C26.37945068 44.19254517 26.37945068 44.19254517 25.87445068 45.20254517 C24.88445068 45.20254517 23.89445068 45.20254517 22.87445068 45.20254517 C22.87445068 46.85254517 22.87445068 48.50254517 22.87445068 50.20254517 C21.88445068 50.69754517 21.88445068 50.69754517 20.87445068 51.20254517 C19.74094535 53.21924344 19.74094535 53.21924344 18.87445068 55.20254517 C18.21445068 54.87254517 17.55445068 54.54254517 16.87445068 54.20254517 C16.87445068 49.58254517 16.87445068 44.96254517 16.87445068 40.20254517 C15.22445068 40.86254517 13.57445068 41.52254517 11.87445068 42.20254517 C10.98058905 44.75029823 10.98058905 44.75029823 10.87445068 47.20254517 C10.21445068 47.20254517 9.55445068 47.20254517 8.87445068 47.20254517 C8.87445068 46.54254517 8.87445068 45.88254517 8.87445068 45.20254517 C7.55445068 44.87254517 6.23445068 44.54254517 4.87445068 44.20254517 C4.87445068 43.54254517 4.87445068 42.88254517 4.87445068 42.20254517 C4.07007568 41.91379517 3.26570068 41.62504517 2.43695068 41.32754517 C-0.12554932 40.20254517 -0.12554932 40.20254517 -1.12554932 38.20254517 C-2.11554932 37.87254517 -3.10554932 37.54254517 -4.12554932 37.20254517 C-4.12554932 36.54254517 -4.12554932 35.88254517 -4.12554932 35.20254517 C-6.43554932 35.86254517 -8.74554932 36.52254517 -11.12554932 37.20254517 C-11.12554932 34.56254517 -11.12554932 31.92254517 -11.12554932 29.20254517 C-10.13554932 29.20254517 -9.14554932 29.20254517 -8.12554932 29.20254517 C-8.12554932 20.29254517 -8.12554932 11.38254517 -8.12554932 2.20254517 C-3.62554932 -0.04745483 -3.62554932 -0.04745483 0 0 Z " fill="#FAE5CD" transform="translate(289.12554931640625,207.79745483398438)"/>
<path d="M0 0 C-0.20312678 1.92970445 -0.40633147 3.85940073 -0.60986328 5.7890625 C-0.78920636 7.49595941 -0.96722988 9.20299541 -1.14404297 10.91015625 C-1.59208773 15.21894521 -2.0562052 19.52370611 -2.578125 23.82421875 C-3.89493426 34.92931021 -4.22532414 45.82141895 -4 57 C0.455 56.505 0.455 56.505 5 56 C5.19335938 56.71027344 5.38671875 57.42054688 5.5859375 58.15234375 C5.84632813 59.07144531 6.10671875 59.99054688 6.375 60.9375 C6.63023437 61.85402344 6.88546875 62.77054688 7.1484375 63.71484375 C7.76660104 66.16745087 7.76660104 66.16745087 10 67 C10 67.99 10 68.98 10 70 C-41.81 70 -93.62 70 -147 70 C-147 69.67 -147 69.34 -147 69 C-144.36 68.67 -141.72 68.34 -139 68 C-140.32 67.34 -141.64 66.68 -143 66 C-142.25 59.25 -142.25 59.25 -140 57 C-136.40372875 55.66804768 -132.79067493 55.79323591 -129 56 C-128.01 56.66 -127.02 57.32 -126 58 C-125.67 51.4 -125.34 44.8 -125 38 C-126.32 37.34 -127.64 36.68 -129 36 C-129.75 33.375 -129.75 33.375 -130 31 C-129.01 31.66 -128.02 32.32 -127 33 C-127 33.66 -127 34.32 -127 35 C-122.96813099 35.35203685 -122.96813099 35.35203685 -119 35 C-117.0645852 32.60943058 -117.0645852 32.60943058 -116 30 C-115.34 30 -114.68 30 -114 30 C-113.855625 30.7425 -113.71125 31.485 -113.5625 32.25 C-113.09968589 34.51264678 -112.56013482 36.7594607 -112 39 C-115.3 38.67 -118.6 38.34 -122 38 C-122 45.92 -122 53.84 -122 62 C-119.36 62 -116.72 62 -114 62 C-113.505 63.98 -113.505 63.98 -113 66 C-100.13 66 -87.26 66 -74 66 C-73.505 64.02 -73.505 64.02 -73 62 C-70.69 62 -68.38 62 -66 62 C-66 54.08 -66 46.16 -66 38 C-70.97198058 37.97417882 -70.97198058 37.97417882 -75 40 C-75 36.09567131 -74.31626692 33.61973402 -73 30 C-72.34 30 -71.68 30 -71 30 C-70.5875 30.825 -70.175 31.65 -69.75 32.5 C-68.20816734 35.3230237 -68.20816734 35.3230237 -65 35.5625 C-61.8996535 35.30122007 -61.8996535 35.30122007 -60.25 33 C-59.8375 32.34 -59.425 31.68 -59 31 C-58.34 31 -57.68 31 -57 31 C-57.5590888 34.24271506 -58.4132178 35.93057424 -61 38 C-61.66 38 -62.32 38 -63 38 C-62.67 44.6 -62.34 51.2 -62 58 C-60.68 57.34 -59.36 56.68 -58 56 C-56.02734375 56.19921875 -56.02734375 56.19921875 -53.9375 56.6875 C-48.70596517 57.43363694 -45.40589954 55.68471813 -40.796875 53.34765625 C-36.68211152 51.3649839 -32.4019145 50.17448044 -28 49 C-27.87093262 47.98631348 -27.74186523 46.97262695 -27.60888672 45.92822266 C-26.73338427 40.27993301 -25.19435287 34.85992228 -23.67138672 29.35644531 C-23.12508503 27.37530834 -22.591557 25.39101104 -22.05859375 23.40625 C-21.53845703 21.51519531 -21.53845703 21.51519531 -21.0078125 19.5859375 C-20.53819092 17.86963135 -20.53819092 17.86963135 -20.05908203 16.11865234 C-17.85545516 9.62968748 -14.87848168 6.87254308 -8.9375 3.6875 C-8.30005859 3.32849609 -7.66261719 2.96949219 -7.00585938 2.59960938 C-2.30675595 0 -2.30675595 0 0 0 Z " fill="#E2E8EC" transform="translate(294,120)"/>
<path d="M0 0 C3.41550329 1.69238715 6.74664827 3.49314115 10.0625 5.375 C11.10535156 5.96023437 12.14820313 6.54546875 13.22265625 7.1484375 C17.80061637 10.20041091 19.33147564 13.33845666 20.75390625 18.578125 C21.05103516 19.65707031 21.34816406 20.73601562 21.65429688 21.84765625 C22.10385742 23.53181641 22.10385742 23.53181641 22.5625 25.25 C22.86607422 26.35730469 23.16964844 27.46460938 23.48242188 28.60546875 C24.33598487 31.7333401 25.17134423 34.86545119 26 38 C26.21769043 38.80501953 26.43538086 39.61003906 26.65966797 40.43945312 C27.54141022 43.78650639 28 46.50557227 28 50 C28.60585937 50.17015625 29.21171875 50.3403125 29.8359375 50.515625 C36.05949532 52.31566942 42.02642961 54.49618433 48 57 C47.505 57.721875 47.01 58.44375 46.5 59.1875 C44.60784314 62.20404412 44.60784314 62.20404412 45 67 C37.41 67 29.82 67 22 67 C21.34 65.35 20.68 63.7 20 62 C17.07983216 59.10084056 13.80808795 57.09611099 9.6484375 56.875 C7.38243329 57.1175155 5.22177205 57.49735575 3 58 C1.989375 58.185625 0.97875 58.37125 -0.0625 58.5625 C-0.701875 58.706875 -1.34125 58.85125 -2 59 C-2.66 61.64 -3.32 64.28 -4 67 C-6.64 67 -9.28 67 -12 67 C-12.16702456 62.65736138 -12.12999997 59.79039366 -10 56 C-11.91619141 55.81630859 -11.91619141 55.81630859 -13.87109375 55.62890625 C-19.01442683 55.0574248 -24.01177101 54.04638775 -29.0625 52.9375 C-29.92810547 52.75123047 -30.79371094 52.56496094 -31.68554688 52.37304688 C-33.79122451 51.91933733 -35.89574007 51.46023996 -38 51 C-36.02 50.505 -36.02 50.505 -34 50 C-33.814375 48.3603125 -33.814375 48.3603125 -33.625 46.6875 C-32.97229869 41.41859235 -31.98735937 36.21479126 -31 31 C-30.67 31 -30.34 31 -30 31 C-29.66254646 33.39531756 -29.3299171 35.79114268 -29 38.1875 C-28.90460938 38.86103516 -28.80921875 39.53457031 -28.7109375 40.22851562 C-28.21675387 43.84664577 -27.88653869 47.34796401 -28 51 C-26.57494141 51.18369141 -26.57494141 51.18369141 -25.12109375 51.37109375 C-20.38851199 52.04717686 -15.73419893 53.05710776 -11.0625 54.0625 C-10.18787109 54.24876953 -9.31324219 54.43503906 -8.41210938 54.62695312 C-6.27429472 55.08255297 -4.13708418 55.54098592 -2 56 C-2.06900513 54.14822144 -2.06900513 54.14822144 -2.1394043 52.2590332 C-2.30764372 47.62068461 -2.45305383 42.98183883 -2.59204102 38.3425293 C-2.65495343 36.34558307 -2.72382201 34.34881429 -2.79907227 32.35229492 C-3.21850986 21.11193044 -3.50761914 10.82574732 0 0 Z " fill="#2083F9" transform="translate(107,119)"/>
<path d="M0 0 C3.28672877 0.40395549 6.55132925 0.51427379 9.859375 0.65625 C17.28032112 1.18403281 22.5290435 2.73836451 27.796875 8.09375 C30.24043953 12.06454236 30.76359498 14.870752 29.796875 19.34375 C27.94334043 24.47380827 25.70308792 29.2851237 22.421875 33.65625 C20.43379906 36.27301725 20.43379906 36.27301725 21.359375 39.40625 C21.50375 40.375625 21.648125 41.345 21.796875 42.34375 C19.796875 44.84375 19.796875 44.84375 16.796875 47.34375 C15.92869141 48.17519531 15.92869141 48.17519531 15.04296875 49.0234375 C14.44613281 49.58289063 13.84929687 50.14234375 13.234375 50.71875 C12.67621094 51.24210937 12.11804688 51.76546875 11.54296875 52.3046875 C9.796875 53.34375 9.796875 53.34375 7.72265625 53.29296875 C5.04681242 51.9740437 4.62674578 50.51949376 3.546875 47.78125 C3.04414063 46.54181641 3.04414063 46.54181641 2.53125 45.27734375 C2.16773438 44.32021484 2.16773438 44.32021484 1.796875 43.34375 C0.1571875 43.4984375 0.1571875 43.4984375 -1.515625 43.65625 C-5.203125 43.34375 -5.203125 43.34375 -7.140625 41.28125 C-8.39573098 37.81125111 -8.41861163 35.00702268 -8.203125 31.34375 C-9.193125 31.01375 -10.183125 30.68375 -11.203125 30.34375 C-10.90019531 29.49167969 -10.59726562 28.63960937 -10.28515625 27.76171875 C-9.21821137 24.3914055 -8.48526828 21.13916066 -7.890625 17.65625 C-7.68824219 16.53863281 -7.48585938 15.42101562 -7.27734375 14.26953125 C-6.87227753 11.34028367 -6.87227753 11.34028367 -8.66796875 9.671875 C-9.17457031 9.23359375 -9.68117188 8.7953125 -10.203125 8.34375 C-10.078125 4.78125 -10.078125 4.78125 -9.203125 1.34375 C-5.63764656 -1.03323562 -4.09611124 -0.58898332 0 0 Z " fill="#FBBDA0" transform="translate(291.203125,70.65625)"/>
<path d="M0 0 C2.9453125 1.05078125 2.9453125 1.05078125 6 3 C6.8046875 6.35546875 6.8046875 6.35546875 6.875 10.1875 C6.91367187 11.45980469 6.95234375 12.73210937 6.9921875 14.04296875 C6.99605469 15.50669922 6.99605469 15.50669922 7 17 C6.01 17.66 5.02 18.32 4 19 C4.66 19.99 5.32 20.98 6 22 C5.09716797 24.76806641 5.09716797 24.76806641 3.4921875 28.1015625 C3.21029572 28.69746185 2.92840393 29.29336121 2.63796997 29.90731812 C1.72988994 31.81969465 0.80303505 33.72223933 -0.125 35.625 C-0.72785974 36.88349399 -1.32943699 38.14260318 -1.9296875 39.40234375 C-3.08775029 41.83095594 -4.25151274 44.25650522 -5.41894531 46.68066406 C-7.35944912 50.75464333 -9.19657383 54.86378375 -11 59 C-10.05898438 58.7834375 -9.11796875 58.566875 -8.1484375 58.34375 C-6.90320313 58.0653125 -5.65796875 57.786875 -4.375 57.5 C-3.14523437 57.2215625 -1.91546875 56.943125 -0.6484375 56.65625 C3 56 3 56 9 56 C10.485 45.605 10.485 45.605 12 35 C12.33 35 12.66 35 13 35 C13.66 40.94 14.32 46.88 15 53 C16.32 53.33 17.64 53.66 19 54 C19 54.66 19 55.32 19 56 C14.6266647 56.84223216 10.25109034 57.67221195 5.875 58.5 C4.6375 58.73847656 3.4 58.97695312 2.125 59.22265625 C0.32675781 59.56103516 0.32675781 59.56103516 -1.5078125 59.90625 C-3.15740967 60.22045898 -3.15740967 60.22045898 -4.84033203 60.54101562 C-7.94717824 60.99232693 -10.86621925 61.04644276 -14 61 C-15.80015084 61.28396746 -17.59375002 61.61486487 -19.375 62 C-20.24898438 62.185625 -21.12296875 62.37125 -22.0234375 62.5625 C-22.67570312 62.706875 -23.32796875 62.85125 -24 63 C-24.34976624 54.81188265 -23.00110285 47.1015192 -21.5625 39.0625 C-21.10078909 36.44999382 -20.64525397 33.83655599 -20.19140625 31.22265625 C-19.97500488 29.98918457 -19.75860352 28.75571289 -19.53564453 27.48486328 C-18.93964257 23.60731909 -18.63796048 19.77277777 -18.51928711 15.85327148 C-18 14 -18 14 -15.96313477 12.73852539 C-15.31530029 12.49481201 -14.66746582 12.25109863 -14 12 C-13.34 12.66 -12.68 13.32 -12 14 C-12.21956756 15.6222419 -12.45006201 17.24371566 -12.73388672 18.85595703 C-13.2533143 23.04092313 -12.82530896 27.24161901 -12.5625 31.4375 C-12.51029297 32.35982422 -12.45808594 33.28214844 -12.40429688 34.23242188 C-12.27569984 36.48871536 -12.1407929 38.74444029 -12 41 C-11.77860352 40.14881592 -11.55720703 39.29763184 -11.32910156 38.4206543 C-10.49084099 35.20826705 -9.64782863 31.99720055 -8.80175781 28.78686523 C-8.43922323 27.40746928 -8.07849031 26.02759831 -7.71972656 24.6472168 C-5.54170065 16.27276802 -3.15721996 8.07045761 0 0 Z " fill="#8C96A1" transform="translate(314,114)"/>
<path d="M0 0 C1.28583984 0.00966797 1.28583984 0.00966797 2.59765625 0.01953125 C4.9375 0.1875 4.9375 0.1875 7.9375 1.1875 C9.72785368 1.31221504 11.51986701 1.41405184 13.3125 1.5 C18.00850216 1.88512187 20.65842215 2.58051437 23.9375 6.1875 C25.67798496 9.66846992 24.95318638 13.51488567 23.9375 17.1875 C21.375 19.25 21.375 19.25 18.9375 20.1875 C18.2775 18.2075 17.6175 16.2275 16.9375 14.1875 C16.35355469 14.78498047 16.35355469 14.78498047 15.7578125 15.39453125 C11.43884381 19.4846145 7.79410532 21.13884209 1.9765625 22.3515625 C0.96722656 22.76535156 0.96722656 22.76535156 -0.0625 23.1875 C-0.92439847 25.20415813 -0.92439847 25.20415813 -1.0625 27.1875 C-1.619375 26.836875 -2.17625 26.48625 -2.75 26.125 C-5.60136783 24.96904007 -7.14767222 25.37782562 -10.0625 26.1875 C-10.0625 28.1675 -10.0625 30.1475 -10.0625 32.1875 C-8.7425 32.5175 -7.4225 32.8475 -6.0625 33.1875 C-7.0525 35.6625 -7.0525 35.6625 -8.0625 38.1875 C-14.34286528 35.9576175 -17.16990836 28.78246751 -20.0625 23.1875 C-21.19924678 20.05007888 -21.30295901 18.61404088 -21.0625 15.1875 C-18.95720943 10.97691885 -17.22320309 9.13782957 -13.0625 7.1875 C-12.4025 6.3625 -11.7425 5.5375 -11.0625 4.6875 C-7.84118616 0.6608577 -5.06846935 -0.08409225 0 0 Z " fill="#0A1C39" transform="translate(100.0625,69.8125)"/>
<path d="M0 0 C4.63825075 5.27073949 5.60087709 12.2016065 6 19 C4.89887821 23.47209989 3.35181687 28.64818313 0 32 C-2.31 32 -4.62 32 -7 32 C-8.32 37.61 -9.64 43.22 -11 49 C-11.66 48.01 -12.32 47.02 -13 46 C-15.26163682 43.60532572 -17.51898301 41.36690712 -20.140625 39.3671875 C-22.30378174 37.68053032 -24.22240169 36.09102875 -26 34 C-26.26517838 28.96161078 -24.43732339 25.34479387 -22 21 C-23.32 20.67 -24.64 20.34 -26 20 C-26.625 17.125 -26.625 17.125 -27 14 C-26.34 13.34 -25.68 12.68 -25 12 C-21.55834679 12.35299007 -19.93127462 13.04581692 -17 15 C-16.67 13.35 -16.34 11.7 -16 10 C-15.33613281 9.84144531 -14.67226562 9.68289062 -13.98828125 9.51953125 C-8.35741497 8.03166731 -4.75042716 6.71827933 -1 2 C-0.67 1.34 -0.34 0.68 0 0 Z " fill="#FBC1A5" transform="translate(116,82)"/>
<path d="M0 0 C2.6875 2.0625 2.6875 2.0625 4.6875 4.0625 C4.6875 5.3825 4.6875 6.7025 4.6875 8.0625 C5.64789185 8.04678955 5.64789185 8.04678955 6.62768555 8.03076172 C9.54341671 7.98905185 12.45908495 7.96312637 15.375 7.9375 C16.88610352 7.91236328 16.88610352 7.91236328 18.42773438 7.88671875 C19.40419922 7.88027344 20.38066406 7.87382812 21.38671875 7.8671875 C22.28221436 7.85671387 23.17770996 7.84624023 24.1003418 7.83544922 C26.94918257 8.08546544 29.09644543 8.88233488 31.6875 10.0625 C31.6875 10.3925 31.6875 10.7225 31.6875 11.0625 C24.42749807 12.02770153 17.32608783 12.19880275 10.00756836 12.17602539 C8.76755066 12.17617142 7.52753296 12.17631744 6.24993896 12.1764679 C2.87658808 12.17589383 -0.49670033 12.17090573 -3.87004018 12.16389394 C-7.40541856 12.15760932 -10.94079792 12.15705258 -14.47618103 12.15586853 C-21.15888225 12.1527702 -27.84156696 12.14457715 -34.52426094 12.13451904 C-42.13738175 12.1233112 -49.75050339 12.11783572 -57.36363041 12.11282361 C-73.01326315 12.10239317 -88.66287944 12.08482295 -104.3125 12.0625 C-104.3125 10.7425 -104.3125 9.4225 -104.3125 8.0625 C-96.3925 8.0625 -88.4725 8.0625 -80.3125 8.0625 C-79.9825 6.7425 -79.6525 5.4225 -79.3125 4.0625 C-79.3125 5.3825 -79.3125 6.7025 -79.3125 8.0625 C-60.1725 8.0625 -41.0325 8.0625 -21.3125 8.0625 C-20.9825 5.4225 -20.6525 2.7825 -20.3125 0.0625 C-18.31708132 -0.61775637 -16.31632009 -1.28240497 -14.3125 -1.9375 C-13.673125 -2.164375 -13.03375 -2.39125 -12.375 -2.625 C-7.65331641 -3.34040661 -4.0752984 -2.3836651 0 0 Z " fill="#DDE7ED" transform="translate(124.3125,177.9375)"/>
<path d="M0 0 C3.28672877 0.40395549 6.55132925 0.51427379 9.859375 0.65625 C17.28032112 1.18403281 22.5290435 2.73836451 27.796875 8.09375 C30.24043953 12.06454236 30.76359498 14.870752 29.796875 19.34375 C27.58091667 25.4768945 24.63639938 31.08217956 20.796875 36.34375 C18.859375 36.03125 18.859375 36.03125 16.796875 35.34375 C16.466875 34.35375 16.136875 33.36375 15.796875 32.34375 C16.4775 31.76625 17.158125 31.18875 17.859375 30.59375 C18.49875 29.85125 19.138125 29.10875 19.796875 28.34375 C19.66046123 26.12516747 19.66046123 26.12516747 18.796875 24.34375 C15.75300776 24.26148332 13.72512152 24.36766783 10.796875 25.34375 C8.30915242 22.0599562 7.76507056 20.73176417 8.109375 16.53125 C8.4496875 14.9534375 8.4496875 14.9534375 8.796875 13.34375 C7.8275 13.385 6.858125 13.42625 5.859375 13.46875 C0.86313218 13.45857435 -4.90447485 13.09558469 -8.9765625 9.9921875 C-10.203125 8.34375 -10.203125 8.34375 -10.078125 4.78125 C-8.52627268 -1.31531268 -5.51961842 -0.79367062 0 0 Z " fill="#041D35" transform="translate(291.203125,70.65625)"/>
<path d="M0 0 C0.33 0 0.66 0 1 0 C1.90407885 3.99810066 2.27227298 7.89997459 2.53515625 11.98828125 C2.57813339 12.65031052 2.62111053 13.31233978 2.66539001 13.99443054 C2.75520176 15.39030738 2.84335172 16.78629203 2.92993164 18.18237305 C3.0614558 20.29572159 3.19926356 22.4085912 3.33789062 24.52148438 C3.58568597 28.34626842 3.79204339 32.17284517 4 36 C4.07065674 36.87414551 4.14131348 37.74829102 4.21411133 38.64892578 C4.3359375 40.77734375 4.3359375 40.77734375 4 44 C2.06640625 45.953125 2.06640625 45.953125 -0.4375 47.25 C-2.91444477 48.50737116 -2.91444477 48.50737116 -5 50 C-5.33 51.32 -5.66 52.64 -6 54 C-11.94 54 -17.88 54 -24 54 C-24.99 51.36 -25.98 48.72 -27 46 C-27.66 45.34 -28.32 44.68 -29 44 C-26.2100561 42.82905995 -23.41821403 41.66309073 -20.625 40.5 C-19.8309375 40.16613281 -19.036875 39.83226562 -18.21875 39.48828125 C-17.45820313 39.17246094 -16.69765625 38.85664063 -15.9140625 38.53125 C-15.2123291 38.23798828 -14.5105957 37.94472656 -13.78759766 37.64257812 C-12 37 -12 37 -10 37 C-9.87238281 35.98921387 -9.74476563 34.97842773 -9.61328125 33.93701172 C-9.02904801 30.18647619 -8.1970079 26.66426218 -7.1875 23.0078125 C-7.01371826 22.3764035 -6.83993652 21.74499451 -6.66088867 21.0944519 C-6.29652836 19.77462743 -5.93005071 18.45538577 -5.56152344 17.13671875 C-4.99607897 15.11095247 -4.43901251 13.08300916 -3.8828125 11.0546875 C-3.52653281 9.76809306 -3.16977928 8.48162972 -2.8125 7.1953125 C-2.48894531 6.03016113 -2.16539062 4.86500977 -1.83203125 3.66455078 C-1 1 -1 1 0 0 Z " fill="#66717E" transform="translate(276,132)"/>
<path d="M0 0 C-0.20312678 1.92970445 -0.40633147 3.85940073 -0.60986328 5.7890625 C-0.78920636 7.49595941 -0.96722988 9.20299541 -1.14404297 10.91015625 C-1.59208773 15.21894521 -2.0562052 19.52370611 -2.578125 23.82421875 C-3.89493426 34.92931021 -4.22532414 45.82141895 -4 57 C-7.3 56.67 -10.6 56.34 -14 56 C-15.12107911 44.96335715 -16.17666616 33.94950655 -16.65795898 22.86376953 C-16.80293469 19.72299821 -17.04843204 16.74536038 -17.63671875 13.65234375 C-18 11 -18 11 -16.25 8.5 C-12.22820129 5.00228837 -5.41924648 0 0 0 Z " fill="#88929F" transform="translate(294,120)"/>
<path d="M0 0 C0.66 0 1.32 0 2 0 C2.144375 0.7425 2.28875 1.485 2.4375 2.25 C2.90031411 4.51264678 3.43986518 6.7594607 4 9 C0.7 8.67 -2.6 8.34 -6 8 C-6 15.92 -6 23.84 -6 32 C-3.36 32 -0.72 32 2 32 C2.495 33.98 2.495 33.98 3 36 C15.21 36 27.42 36 40 36 C39.67 36.99 39.34 37.98 39 39 C35.64085304 40.3806338 32.06955081 40.12036174 28.48730469 40.11352539 C27.52082504 40.11374443 27.52082504 40.11374443 26.53482056 40.1139679 C24.41380397 40.1132735 22.29287617 40.10550336 20.171875 40.09765625 C18.69785612 40.09579039 17.22383662 40.09436728 15.74981689 40.09336853 C11.87661008 40.08955661 8.00344097 40.07973765 4.13024902 40.06866455 C0.17537954 40.05842193 -3.77949606 40.0538648 -7.734375 40.04882812 C-15.48960049 40.03811418 -23.24479496 40.02105369 -31 40 C-31 39.67 -31 39.34 -31 39 C-28.36 38.67 -25.72 38.34 -23 38 C-24.32 37.34 -25.64 36.68 -27 36 C-26.25 29.25 -26.25 29.25 -24 27 C-20.40372875 25.66804768 -16.79067493 25.79323591 -13 26 C-12.01 26.66 -11.02 27.32 -10 28 C-9.67 21.4 -9.34 14.8 -9 8 C-10.32 7.34 -11.64 6.68 -13 6 C-13.75 3.375 -13.75 3.375 -14 1 C-13.01 1.66 -12.02 2.32 -11 3 C-11 3.66 -11 4.32 -11 5 C-6.96813099 5.35203685 -6.96813099 5.35203685 -3 5 C-1.0645852 2.60943058 -1.0645852 2.60943058 0 0 Z " fill="#E4EBEE" transform="translate(178,150)"/>
<path d="M0 0 C0.70189453 0.01353516 1.40378906 0.02707031 2.12695312 0.04101562 C3.85579829 0.07629818 5.58424765 0.13010417 7.3125 0.1875 C7.13074219 1.10450684 6.94898437 2.02151367 6.76171875 2.96630859 C6.08328583 6.4128348 5.41341269 9.86080871 4.74902344 13.31005859 C4.46135121 14.79443441 4.17041267 16.2781815 3.87597656 17.76123047 C0.30651758 31.20106198 0.30651758 31.20106198 2.42773438 44.11328125 C3.9106969 46.00638522 3.9106969 46.00638522 6.3125 48.1875 C2.6825 48.1875 -0.9475 48.1875 -4.6875 48.1875 C-6.55055527 37.22057892 -8.16514589 26.22360478 -9.5625 15.1875 C-9.71887939 14.04812988 -9.87525879 12.90875977 -10.03637695 11.73486328 C-10.16616943 10.6673584 -10.29596191 9.59985352 -10.4296875 8.5 C-10.5519873 7.54738281 -10.67428711 6.59476563 -10.80029297 5.61328125 C-10.6875 3.1875 -10.6875 3.1875 -9.68408203 1.3671875 C-6.59730107 -0.45664786 -3.47147872 -0.12641239 0 0 Z " fill="#172D46" transform="translate(49.6875,137.8125)"/>
<path d="M0 0 C1.93681161 -0.08107583 3.8745934 -0.13922475 5.8125 -0.1875 C6.89144531 -0.22230469 7.97039062 -0.25710937 9.08203125 -0.29296875 C12 0 12 0 13.6940918 1.19018555 C15.52075699 3.72169967 15.16939585 5.17649695 14.8125 8.25 C14.69390625 9.31992188 14.5753125 10.38984375 14.453125 11.4921875 C14.30359375 12.64976562 14.1540625 13.80734375 14 15 C13.85046875 16.19882813 13.7009375 17.39765625 13.546875 18.6328125 C13.0559411 22.42567281 12.53275579 26.21280126 12 30 C11.82210938 31.29550781 11.64421875 32.59101563 11.4609375 33.92578125 C10.13334309 43.46662763 10.13334309 43.46662763 9 48 C5.04 48 1.08 48 -3 48 C-1.68 47.34 -0.36 46.68 1 46 C2.48062769 41.55811694 2.19052212 37.21694924 2.1875 32.5625 C2.18814453 31.54728271 2.18878906 30.53206543 2.18945312 29.48608398 C2.1217032 19.57688807 1.20559286 9.82773461 0 0 Z " fill="#132A3F" transform="translate(346,138)"/>
<path d="M0 0 C0.33 0 0.66 0 1 0 C1.85874302 11.7934042 1.85874302 11.7934042 -1.0625 15.8125 C-4 18 -4 18 -7.625 17.75 C-8.73875 17.5025 -9.8525 17.255 -11 17 C-11.99 17.66 -12.98 18.32 -14 19 C-16.04296875 19.4140625 -16.04296875 19.4140625 -18.1875 19.625 C-19.445625 19.74875 -20.70375 19.8725 -22 20 C-22 19.34 -22 18.68 -22 18 C-22.928125 18.33 -23.85625 18.66 -24.8125 19 C-28 20 -28 20 -31 20 C-31.66 20.66 -32.32 21.32 -33 22 C-33 21.01 -33 20.02 -33 19 C-34.65 19 -36.3 19 -38 19 C-38.33 19.66 -38.66 20.32 -39 21 C-39.763125 20.835 -40.52625 20.67 -41.3125 20.5 C-44.39343766 19.9268023 -46.28385819 19.6419291 -49.125 21.0625 C-53.25937112 22.4106645 -56.76521484 21.65987234 -61 21 C-62.27875 20.835 -63.5575 20.67 -64.875 20.5 C-68 20 -68 20 -71 19 C-73.00719884 19.64466835 -75.00638742 20.31446858 -77 21 C-83.55464768 21.92488894 -90.55870821 22.82036507 -97 21 C-98.9375 19.0625 -98.9375 19.0625 -100 17 C-100 16.34 -100 15.68 -100 15 C-78.90457436 14.16685662 -57.85026174 13.86482998 -36.73986816 13.93133545 C-33.02385062 13.94185621 -29.30782524 13.94619233 -25.59179688 13.95117188 C-18.39451136 13.96166636 -11.19726217 13.9785612 -4 14 C-1.67508923 9.64231385 -0.7750999 6.94780212 -1 2 C-0.67 1.34 -0.34 0.68 0 0 Z " fill="#FCECDA" transform="translate(382,259)"/>
<path d="M0 0 C0.33 0 0.66 0 1 0 C1.33 8.91 1.66 17.82 2 27 C3.98 25.68 5.96 24.36 8 23 C8.66 23 9.32 23 10 23 C10.33 22.01 10.66 21.02 11 20 C11 20.99 11 21.98 11 23 C11.60585937 23.17015625 12.21171875 23.3403125 12.8359375 23.515625 C19.05949532 25.31566942 25.02642961 27.49618433 31 30 C30.505 30.721875 30.01 31.44375 29.5 32.1875 C27.60784314 35.20404412 27.60784314 35.20404412 28 40 C20.41 40 12.82 40 5 40 C4.34 38.35 3.68 36.7 3 35 C1.32295399 33.37551962 1.32295399 33.37551962 -0.625 32.1875 C-1.25664063 31.76855469 -1.88828125 31.34960938 -2.5390625 30.91796875 C-3.26222656 30.46357422 -3.26222656 30.46357422 -4 30 C-2 9.46808511 -2 9.46808511 0 0 Z " fill="#0865DF" transform="translate(124,146)"/>
<path d="M0 0 C1.32 0.66 2.64 1.32 4 2 C3.83923477 2.5692218 3.67846954 3.1384436 3.51283264 3.72491455 C2.99640479 6.01594948 2.84295704 8.05637245 2.79467773 10.40136719 C2.77473251 11.2619574 2.75478729 12.12254761 2.73423767 13.00921631 C2.70916893 14.38910736 2.70916893 14.38910736 2.68359375 15.796875 C2.66281265 16.74564514 2.64203156 17.69441528 2.62062073 18.67193604 C2.55532066 21.69788482 2.49633112 24.7239192 2.4375 27.75 C2.3942962 29.80339421 2.35068131 31.85677982 2.30664062 33.91015625 C2.19965927 38.9400168 2.09833677 43.96996332 2 49 C-1.3 49.66 -4.6 50.32 -8 51 C-8.34976624 42.81188265 -7.00110285 35.1015192 -5.5625 27.0625 C-3.49771545 15.51566887 -3.49771545 15.51566887 -2.32397461 3.85327148 C-2 2 -2 2 0 0 Z " fill="#041D36" transform="translate(298,126)"/>
<path d="M0 0 C0.99 0.33 1.98 0.66 3 1 C4.65049717 5.43028188 5.22973141 9.29050618 5 14 C4.34 13.67 3.68 13.34 3 13 C3 12.34 3 11.68 3 11 C1.07767304 12.60161184 0.09249587 13.48896254 -0.36076355 15.99320984 C-0.35410172 16.75043839 -0.34743988 17.50766693 -0.34057617 18.2878418 C-0.34034958 19.14850754 -0.34012299 20.00917328 -0.33988953 20.8959198 C-0.32440567 21.82100845 -0.30892181 22.74609711 -0.29296875 23.69921875 C-0.28660149 25.12449638 -0.28660149 25.12449638 -0.28010559 26.5785675 C-0.26330484 29.61516588 -0.22564992 32.65110202 -0.1875 35.6875 C-0.17245497 37.74543313 -0.15876625 39.80337665 -0.14648438 41.86132812 C-0.11339671 46.90780748 -0.06160462 51.95379144 0 57 C0.99 57.495 0.99 57.495 2 58 C0.02 58.495 0.02 58.495 -2 59 C-2.66 61.64 -3.32 64.28 -4 67 C-6.64 67 -9.28 67 -12 67 C-12.16702456 62.65736138 -12.12999997 59.79039366 -10 56 C-11.91619141 55.81630859 -11.91619141 55.81630859 -13.87109375 55.62890625 C-19.01442683 55.0574248 -24.01177101 54.04638775 -29.0625 52.9375 C-29.92810547 52.75123047 -30.79371094 52.56496094 -31.68554688 52.37304688 C-33.79122451 51.91933733 -35.89574007 51.46023996 -38 51 C-36.02 50.505 -36.02 50.505 -34 50 C-33.814375 48.3603125 -33.814375 48.3603125 -33.625 46.6875 C-32.97229869 41.41859235 -31.98735937 36.21479126 -31 31 C-30.67 31 -30.34 31 -30 31 C-29.66254646 33.39531756 -29.3299171 35.79114268 -29 38.1875 C-28.90460938 38.86103516 -28.80921875 39.53457031 -28.7109375 40.22851562 C-28.21675387 43.84664577 -27.88653869 47.34796401 -28 51 C-26.57494141 51.18369141 -26.57494141 51.18369141 -25.12109375 51.37109375 C-20.38851199 52.04717686 -15.73419893 53.05710776 -11.0625 54.0625 C-10.18787109 54.24876953 -9.31324219 54.43503906 -8.41210938 54.62695312 C-6.27429472 55.08255297 -4.13708418 55.54098592 -2 56 C-2.06900513 54.14822144 -2.06900513 54.14822144 -2.1394043 52.2590332 C-2.30764372 47.62068461 -2.45305383 42.98183883 -2.59204102 38.3425293 C-2.65495343 36.34558307 -2.72382201 34.34881429 -2.79907227 32.35229492 C-3.21850986 21.11193044 -3.50761914 10.82574732 0 0 Z " fill="#065ED5" transform="translate(107,119)"/>
<path d="M0 0 C25.74 0 51.48 0 78 0 C78 1.32 78 2.64 78 4 C52.92 4 27.84 4 2 4 C2 3.01 2 2.02 2 1 C1.34 0.67 0.68 0.34 0 0 Z " fill="#DFE5E9" transform="translate(302,186)"/>
<path d="M0 0 C2.6875 2.0625 2.6875 2.0625 4.6875 4.0625 C4.6875 5.3825 4.6875 6.7025 4.6875 8.0625 C-3.8925 8.0625 -12.4725 8.0625 -21.3125 8.0625 C-20.9825 5.4225 -20.6525 2.7825 -20.3125 0.0625 C-18.31708132 -0.61775637 -16.31632009 -1.28240497 -14.3125 -1.9375 C-13.673125 -2.164375 -13.03375 -2.39125 -12.375 -2.625 C-7.65331641 -3.34040661 -4.0752984 -2.3836651 0 0 Z " fill="#F6BCA1" transform="translate(124.3125,177.9375)"/>
<path d="M0 0 C1.90845703 0.15275391 1.90845703 0.15275391 3.85546875 0.30859375 C4.83128906 0.39238281 5.80710937 0.47617188 6.8125 0.5625 C7.1425 3.8625 7.4725 7.1625 7.8125 10.5625 C-0.7675 10.5625 -9.3475 10.5625 -18.1875 10.5625 C-17.1875 5.5625 -17.1875 5.5625 -15.6640625 4.015625 C-15.05304688 3.61859375 -14.44203125 3.2215625 -13.8125 2.8125 C-13.20664062 2.40515625 -12.60078125 1.9978125 -11.9765625 1.578125 C-7.84330623 -0.76826502 -4.62596112 -0.38196009 0 0 Z " fill="#F7BC9F" transform="translate(288.1875,175.4375)"/>
<path d="M0 0 C0.66 0 1.32 0 2 0 C2.144375 0.7425 2.28875 1.485 2.4375 2.25 C2.90031411 4.51264678 3.43986518 6.7594607 4 9 C0.7 8.67 -2.6 8.34 -6 8 C-6 15.92 -6 23.84 -6 32 C-3.36 32 -0.72 32 2 32 C2.33 33.32 2.66 34.64 3 36 C-4.26 36 -11.52 36 -19 36 C-19 35.01 -19 34.02 -19 33 C-17 32 -17 32 -9 32 C-9 24.08 -9 16.16 -9 8 C-10.32 7.34 -11.64 6.68 -13 6 C-13.75 3.375 -13.75 3.375 -14 1 C-13.01 1.66 -12.02 2.32 -11 3 C-11 3.66 -11 4.32 -11 5 C-6.96813099 5.35203685 -6.96813099 5.35203685 -3 5 C-1.0645852 2.60943058 -1.0645852 2.60943058 0 0 Z " fill="#001329" transform="translate(178,150)"/>
<path d="M0 0 C0.66 0 1.32 0 2 0 C2.4125 0.825 2.825 1.65 3.25 2.5 C4.79183266 5.3230237 4.79183266 5.3230237 8 5.5625 C11.1003465 5.30122007 11.1003465 5.30122007 12.75 3 C13.1625 2.34 13.575 1.68 14 1 C14.66 1 15.32 1 16 1 C15.4409112 4.24271506 14.5867822 5.93057424 12 8 C11.34 8 10.68 8 10 8 C10 15.92 10 23.84 10 32 C12.97 32 15.94 32 19 32 C19.33 33.32 19.66 34.64 20 36 C13.07 36 6.14 36 -1 36 C-0.67 34.68 -0.34 33.36 0 32 C2.31 32 4.62 32 7 32 C7 24.08 7 16.16 7 8 C2.02801942 7.97417882 2.02801942 7.97417882 -2 10 C-2 6.09567131 -1.31626692 3.61973402 0 0 Z " fill="#0A1826" transform="translate(221,150)"/>
<path d="M0 0 C0.66 0 1.32 0 2 0 C2.495 6.93 2.495 6.93 3 14 C2.01 14.66 1.02 15.32 0 16 C0.66 16.99 1.32 17.98 2 19 C1.09716797 21.76806641 1.09716797 21.76806641 -0.5078125 25.1015625 C-0.78970428 25.69746185 -1.07159607 26.29336121 -1.36203003 26.90731812 C-2.27011006 28.81969465 -3.19696495 30.72223933 -4.125 32.625 C-4.72785974 33.88349399 -5.32943699 35.14260318 -5.9296875 36.40234375 C-7.08775029 38.83095594 -8.25151274 41.25650522 -9.41894531 43.68066406 C-11.35944912 47.75464333 -13.19657383 51.86378375 -15 56 C-14.05898438 55.7834375 -13.11796875 55.566875 -12.1484375 55.34375 C-10.90320313 55.0653125 -9.65796875 54.786875 -8.375 54.5 C-7.14523437 54.2215625 -5.91546875 53.943125 -4.6484375 53.65625 C-1 53 -1 53 5 53 C5.99 46.07 6.98 39.14 8 32 C8.33 32 8.66 32 9 32 C9.66 37.94 10.32 43.88 11 50 C12.32 50.33 13.64 50.66 15 51 C15 51.66 15 52.32 15 53 C10.60554278 53.8407021 6.20923004 54.6712735 1.8125 55.5 C0.56662109 55.73847656 -0.67925781 55.97695312 -1.96289062 56.22265625 C-3.7659668 56.56103516 -3.7659668 56.56103516 -5.60546875 56.90625 C-7.26292114 57.22045898 -7.26292114 57.22045898 -8.95385742 57.54101562 C-11.6982428 57.95453206 -14.23175475 58.09009749 -17 58 C-16.36709082 54.12574839 -15.20140961 50.86849157 -13.6015625 47.2890625 C-13.12203125 46.20882812 -12.6425 45.12859375 -12.1484375 44.015625 C-11.64570313 42.89671875 -11.14296875 41.7778125 -10.625 40.625 C-9.63780404 38.40895073 -8.65081916 36.19280741 -7.6640625 33.9765625 C-5.14347458 28.31567803 -5.14347458 28.31567803 -3.96850586 25.73046875 C-2.37816304 22.37671861 -2.37816304 22.37671861 -2.3125 18.75 C-2.6528125 17.88375 -2.6528125 17.88375 -3 17 C-3 16.01 -3 15.02 -3 14 C-1.68 13.67 -0.36 13.34 1 13 C0.505 6.565 0.505 6.565 0 0 Z " fill="#5C6876" transform="translate(318,117)"/>
<path d="M0 0 C0.66 0 1.32 0 2 0 C2.350625 0.680625 2.70125 1.36125 3.0625 2.0625 C5.90030898 6.36498459 9.86671739 8.99318854 14 12 C13.15256083 16.48071284 10.97965011 18.63834347 8 22 C4.26128094 18.48120559 1.27878282 14.78053168 -1.66796875 10.57421875 C-2.10753906 10.05472656 -2.54710938 9.53523438 -3 9 C-3.66 9 -4.32 9 -5 9 C-3.7580393 5.56072421 -2.44259716 2.74792181 0 0 Z " fill="#1D79E8" transform="translate(88,113)"/>
<path d="M0 0 C1.05389548 3.16168645 0.9600696 4.46323631 0.4765625 7.68359375 C0.276073 9.06550903 0.276073 9.06550903 0.0715332 10.4753418 C-0.07582275 11.452854 -0.22317871 12.43036621 -0.375 13.4375 C-0.66212003 15.4528462 -0.94729655 17.46847031 -1.23046875 19.484375 C-1.43422119 20.92973633 -1.43422119 20.92973633 -1.64208984 22.40429688 C-3.18566163 33.5988775 -3.1061524 44.72425603 -3 56 C-3.66 55.67 -4.32 55.34 -5 55 C-5.49804718 52.06090675 -5.85614783 49.21290577 -6.125 46.25 C-6.2084668 45.36634766 -6.29193359 44.48269531 -6.37792969 43.57226562 C-6.95462691 36.88257784 -7.21109167 30.21345563 -7.25 23.5 C-7.25918457 22.61086914 -7.26836914 21.72173828 -7.27783203 20.80566406 C-7.27380371 19.97260742 -7.26977539 19.13955078 -7.265625 18.28125 C-7.26336914 17.54970703 -7.26111328 16.81816406 -7.25878906 16.06445312 C-6.96004677 13.68127877 -6.13980137 12.1001401 -5 10 C-4.5359375 8.515 -4.5359375 8.515 -4.0625 7 C-3.04970763 4.14035094 -1.94325547 2.29657465 0 0 Z " fill="#8C98A4" transform="translate(293,121)"/>
<path d="M0 0 C0.66 0 1.32 0 2 0 C2 1.65 2 3.3 2 5 C2.99 5 3.98 5 5 5 C5 5.99 5 6.98 5 8 C5.66 8 6.32 8 7 8 C7.05379226 10.95857409 7.09357093 13.91617721 7.125 16.875 C7.14175781 17.71675781 7.15851563 18.55851562 7.17578125 19.42578125 C7.18222656 20.23144531 7.18867188 21.03710938 7.1953125 21.8671875 C7.20578613 22.61081543 7.21625977 23.35444336 7.22705078 24.12060547 C7 26 7 26 5 28 C4.01 28 3.02 28 2 28 C2 29.65 2 31.3 2 33 C1.01 33.495 1.01 33.495 0 34 C0 22.78 0 11.56 0 0 Z " fill="#F39446" transform="translate(310,225)"/>
<path d="M0 0 C0.99 0 1.98 0 3 0 C3.28875 0.639375 3.5775 1.27875 3.875 1.9375 C4.82823451 4.15206079 4.82823451 4.15206079 7 5 C7 5.66 7 6.32 7 7 C6.01 7.66 5.02 8.32 4 9 C3.7220175 11.21948234 3.46924781 13.44372355 3.30908203 15.67480469 C2.92818051 19.77265521 2.2739294 23.79491528 1.58984375 27.8515625 C1.39124252 29.03658356 1.39124252 29.03658356 1.18862915 30.24554443 C0.77423747 32.70581931 0.35595298 35.16541298 -0.0625 37.625 C-0.34730855 39.31375095 -0.63181625 41.00255267 -0.91601562 42.69140625 C-1.60720908 46.79486451 -2.30247336 50.89761375 -3 55 C-3.33 55 -3.66 55 -4 55 C-4.57508805 41.28308503 -2.94294782 27.88271525 -1.36376953 14.27490234 C-0.83592851 9.52291614 -0.40539275 4.76381798 0 0 Z " fill="#F2F2F2" transform="translate(293,119)"/>
<path d="M0 0 C3.86285549 0.82775475 5.74867059 2.88684473 8.625 5.5625 C7.24311547 8.77293882 5.70078097 10.61186365 3 12.8125 C2.36835938 13.33328125 1.73671875 13.8540625 1.0859375 14.390625 C0.60382813 14.77734375 0.12171875 15.1640625 -0.375 15.5625 C-3.88376757 13.31329002 -5.20707737 12.11565691 -6.4375 8.0625 C-6.375 4.5625 -6.375 4.5625 -4.75 2.125 C-2.375 0.5625 -2.375 0.5625 0 0 Z " fill="#071B2F" transform="translate(159.375,131.4375)"/>
<path d="M0 0 C0.33 1.32 0.66 2.64 1 4 C4.63 4 8.26 4 12 4 C12 4.99 12 5.98 12 7 C7.55852431 7.85916096 3.37230176 8.11697565 -1.1484375 8.09765625 C-2.13452499 8.09553383 -2.13452499 8.09553383 -3.14053345 8.09336853 C-5.21873731 8.08781762 -7.29682927 8.07527465 -9.375 8.0625 C-10.79296718 8.05747864 -12.21093607 8.05291685 -13.62890625 8.04882812 C-17.08597322 8.03786437 -20.54297567 8.02063421 -24 8 C-24 6.68 -24 5.36 -24 4 C-16.08 4 -8.16 4 0 4 C0 2.68 0 1.36 0 0 Z " fill="#DDE2E5" transform="translate(44,182)"/>
<path d="M0 0 C2.375 1.625 2.375 1.625 4 4 C4.125 6.9375 4.125 6.9375 3 10 C1.13079008 11.9721967 -0.77974118 13.39385532 -3 15 C-5.64 12.69 -8.28 10.38 -11 8 C-9.58922103 2.35688413 -6.12442372 -1.25629205 0 0 Z " fill="#051C32" transform="translate(244,132)"/>
<path d="M0 0 C0.33 0 0.66 0 1 0 C1.33745354 2.39531756 1.6700829 4.79114268 2 7.1875 C2.09539062 7.86103516 2.19078125 8.53457031 2.2890625 9.22851562 C2.78324613 12.84664577 3.11346131 16.34796401 3 20 C3.97066406 20.12246094 4.94132812 20.24492187 5.94140625 20.37109375 C10.34003063 20.99946866 14.62241294 22.01608214 18.9375 23.0625 C19.71673828 23.24876953 20.49597656 23.43503906 21.29882812 23.62695312 C23.19989697 24.08181009 25.10004657 24.5405062 27 25 C27 25.33 27 25.66 27 26 C25.35 26 23.7 26 22 26 C21.34 29.3 20.68 32.6 20 36 C19.67 36 19.34 36 19 36 C18.83297544 31.65736138 18.87000003 28.79039366 21 25 C19.72253906 24.87753906 18.44507812 24.75507813 17.12890625 24.62890625 C11.98557317 24.0574248 6.98822899 23.04638775 1.9375 21.9375 C1.07189453 21.75123047 0.20628906 21.56496094 -0.68554688 21.37304688 C-2.79122451 20.91933733 -4.89574007 20.46023996 -7 20 C-5.68 19.67 -4.36 19.34 -3 19 C-2.814375 17.3603125 -2.814375 17.3603125 -2.625 15.6875 C-1.97229869 10.41859235 -0.98735937 5.21479126 0 0 Z " fill="#024AB6" transform="translate(76,150)"/>
<path d="M0 0 C1.5625 1.6875 1.5625 1.6875 1.5625 4.6875 C-1.7375 5.0175 -5.0375 5.3475 -8.4375 5.6875 C-8.4375 6.6775 -8.4375 7.6675 -8.4375 8.6875 C-10.7475 8.6875 -13.0575 8.6875 -15.4375 8.6875 C-16.36000763 5.66838413 -16.75440887 4.2879589 -15.25 1.4375 C-11.29494675 -2.3811721 -4.74578227 -2.55542122 0 0 Z " fill="#EB9171" transform="translate(167.4375,177.3125)"/>
<path d="M0 0 C0.66 0 1.32 0 2 0 C2 13.86 2 27.72 2 42 C1.34 41.67 0.68 41.34 0 41 C0 36.38 0 31.76 0 27 C-0.66 27 -1.32 27 -2 27 C-2 22.38 -2 17.76 -2 13 C-1.34 13 -0.68 13 0 13 C0 8.71 0 4.42 0 0 Z " fill="#F69348" transform="translate(306,221)"/>
<path d="M0 0 C12.21 0 24.42 0 37 0 C36.67 0.99 36.34 1.98 36 3 C31.30623571 3.77490161 26.9418367 4.07592871 22.19140625 3.87890625 C20.95068359 3.83056641 19.70996094 3.78222656 18.43164062 3.73242188 C17.15482422 3.67634766 15.87800781 3.62027344 14.5625 3.5625 C13.25861328 3.51029297 11.95472656 3.45808594 10.61132812 3.40429688 C7.40727553 3.27519585 4.20358054 3.14025405 1 3 C0.67 2.01 0.34 1.02 0 0 Z " fill="#DBE0E3" transform="translate(181,186)"/>
<path d="M0 0 C2.0625 1.75 2.0625 1.75 3 4 C3.1875 6.75 3.1875 6.75 3 9 C0.69 9 -1.62 9 -4 9 C-4.33 8.01 -4.66 7.02 -5 6 C-7.97 5.67 -10.94 5.34 -14 5 C-13 1 -13 1 -11.22265625 -0.2578125 C-7.40301276 -1.53326463 -3.84983952 -1.00620806 0 0 Z " fill="#EC916D" transform="translate(245,177)"/>
<path d="M0 0 C0.99 0 1.98 0 3 0 C3 5.61 3 11.22 3 17 C2.01 17 1.02 17 0 17 C0 15.68 0 14.36 0 13 C-1.98 13 -3.96 13 -6 13 C-6 10.03 -6 7.06 -6 4 C-3.03 4.495 -3.03 4.495 0 5 C0 3.35 0 1.7 0 0 Z " fill="#F2A362" transform="translate(236,233)"/>
<path d="M0 0 C1.32 0 2.64 0 4 0 C4.19335938 0.71027344 4.38671875 1.42054688 4.5859375 2.15234375 C4.84632813 3.07144531 5.10671875 3.99054688 5.375 4.9375 C5.63023437 5.85402344 5.88546875 6.77054688 6.1484375 7.71484375 C6.76660104 10.16745087 6.76660104 10.16745087 9 11 C9 11.99 9 12.98 9 14 C-2.52164009 14.18451025 -2.52164009 14.18451025 -8 13 C-7.67 12.34 -7.34 11.68 -7 11 C-4.35139573 10.40644386 -1.70802678 10.25790731 1 10 C0.84402344 9.44570312 0.68804687 8.89140625 0.52734375 8.3203125 C0.23537109 7.23363281 0.23537109 7.23363281 -0.0625 6.125 C-0.35833984 5.04605469 -0.35833984 5.04605469 -0.66015625 3.9453125 C-1 2 -1 2 0 0 Z " fill="#DEE4EA" transform="translate(295,176)"/>
<path d="M0 0 C0.33 0 0.66 0 1 0 C1.16754147 4.09317863 1.32810824 8.18656495 1.48217773 12.28027344 C1.53559149 13.67325222 1.59092043 15.06615893 1.64819336 16.45898438 C1.73012069 18.45943602 1.80462098 20.4601875 1.87890625 22.4609375 C1.9260376 23.66540527 1.97316895 24.86987305 2.02172852 26.11083984 C2 29 2 29 1 31 C1.66 31.33 2.32 31.66 3 32 C2.01 32.495 2.01 32.495 1 33 C-1.625 31.5625 -1.625 31.5625 -4 30 C-2 9.46808511 -2 9.46808511 0 0 Z " fill="#0454C9" transform="translate(124,146)"/>
<path d="M0 0 C0.66 0.33 1.32 0.66 2 1 C1.65066406 1.51949219 1.30132812 2.03898437 0.94140625 2.57421875 C-1.53838939 6.37469875 -3.44341989 9.40821411 -4 14 C-4.33 14.33 -4.66 14.66 -5 15 C-5.10367294 18.11323727 -5.14036526 21.19911454 -5.125 24.3125 C-5.12306641 25.24280029 -5.12113281 26.17310059 -5.11914062 27.1315918 C-5.06070402 36.77119737 -4.57867457 46.37953521 -4 56 C-4.66 56 -5.32 56 -6 56 C-6.94774772 48.07435568 -7.33864268 40.13896439 -7.61254883 32.16577148 C-7.68824279 30.04165604 -7.77869974 27.91845428 -7.86914062 25.79492188 C-7.9175742 24.43753208 -7.96513278 23.08011071 -8.01171875 21.72265625 C-8.05772217 20.50328369 -8.10372559 19.28391113 -8.15112305 18.02758789 C-8 15 -8 15 -6 12 C-6 11.01 -6 10.02 -6 9 C-4.6875 6.73828125 -4.6875 6.73828125 -3 4.3125 C-2.443125 3.50425781 -1.88625 2.69601563 -1.3125 1.86328125 C-0.879375 1.24839844 -0.44625 0.63351563 0 0 Z " fill="#5F6C79" transform="translate(292,120)"/>
<path d="M0 0 C0.33 0 0.66 0 1 0 C1.33947025 3.49943267 1.67044773 6.99962052 2 10.5 C2.09539062 11.48226562 2.19078125 12.46453125 2.2890625 13.4765625 C2.80588848 19.01398367 3.10592737 24.43881298 3 30 C1.35 30.66 -0.3 31.32 -2 32 C-2.33 31.01 -2.66 30.02 -3 29 C-2.34 29 -1.68 29 -1 29 C-1.00523682 28.40574219 -1.01047363 27.81148437 -1.01586914 27.19921875 C-1.03685591 24.4661569 -1.04972845 21.7331121 -1.0625 19 C-1.07087891 18.06542969 -1.07925781 17.13085938 -1.08789062 16.16796875 C-1.10708892 10.67725599 -0.8134193 5.43133519 0 0 Z " fill="#586575" transform="translate(277,146)"/>
<path d="M0 0 C1.32 0.66 2.64 1.32 4 2 C4 5.21569078 3.64857671 7.83818852 3 11 C0.75 11.6875 0.75 11.6875 -2 12 C-4.3125 10.5625 -4.3125 10.5625 -6 9 C-5.4409112 5.75728494 -4.5867822 4.06942576 -2 2 C-1.34 2 -0.68 2 0 2 C0 1.34 0 0.68 0 0 Z " fill="#061D31" transform="translate(172,142)"/>
<path d="M0 0 C8.58 0 17.16 0 26 0 C26.33 0.99 26.66 1.98 27 3 C17.76 3 8.52 3 -1 3 C-0.67 2.01 -0.34 1.02 0 0 Z " fill="#D9DDE1" transform="translate(354,186)"/>
<path d="M0 0 C0.99 0 1.98 0 3 0 C3.33 1.98 3.66 3.96 4 6 C4.33 6 4.66 6 5 6 C5 8.97 5 11.94 5 15 C4.34 15 3.68 15 3 15 C3 16.98 3 18.96 3 21 C2.01 21 1.02 21 0 21 C0 14.07 0 7.14 0 0 Z " fill="#F08038" transform="translate(245,231)"/>
<path d="M0 0 C2.475 0.495 2.475 0.495 5 1 C4.505 1.721875 4.01 2.44375 3.5 3.1875 C1.60784314 6.20404412 1.60784314 6.20404412 2 11 C-5.59 11 -13.18 11 -21 11 C-21 10.67 -21 10.34 -21 10 C-15.72 10 -10.44 10 -5 10 C-4.67 8.35 -4.34 6.7 -4 5 C-1.9375 2.1875 -1.9375 2.1875 0 0 Z " fill="#0250C3" transform="translate(150,175)"/>
<path d="M0 0 C0.66 0 1.32 0 2 0 C2 1.32 2 2.64 2 4 C2.721875 3.79375 3.44375 3.5875 4.1875 3.375 C7.49838331 2.93354889 9.09981674 3.38878708 12 5 C12.33 5.99 12.66 6.98 13 8 C9.37 8.66 5.74 9.32 2 10 C1.67 11.32 1.34 12.64 1 14 C0.67 14 0.34 14 0 14 C0 9.38 0 4.76 0 0 Z " fill="#67ABEB" transform="translate(169,235)"/>
<path d="M0 0 C2.31 0.33 4.62 0.66 7 1 C6.34 3.97 5.68 6.94 5 10 C2.69 10 0.38 10 -2 10 C-1.125 2.25 -1.125 2.25 0 0 Z " fill="#1C89FA" transform="translate(98,176)"/>
<path d="M0 0 C0.66 0 1.32 0 2 0 C2.144375 0.7425 2.28875 1.485 2.4375 2.25 C2.90031411 4.51264678 3.43986518 6.7594607 4 9 C0.7 8.67 -2.6 8.34 -6 8 C-6 15.92 -6 23.84 -6 32 C-6.33 32 -6.66 32 -7 32 C-7.14489234 27.89620302 -7.23393542 23.79306033 -7.3125 19.6875 C-7.35439453 18.52025391 -7.39628906 17.35300781 -7.43945312 16.15039062 C-7.45556641 15.03212891 -7.47167969 13.91386719 -7.48828125 12.76171875 C-7.51446533 11.73006592 -7.54064941 10.69841309 -7.56762695 9.63549805 C-7 7 -7 7 -4.55151367 5.27661133 C-3.70951416 4.85532959 -2.86751465 4.43404785 -2 4 C-0.67206394 1.93299345 -0.67206394 1.93299345 0 0 Z " fill="#040F20" transform="translate(178,150)"/>
<path d="M0 0 C1.98 1.65 3.96 3.3 6 5 C4.68 6.65 3.36 8.3 2 10 C-0.375 9.75 -0.375 9.75 -3 9 C-4.3125 6.9375 -4.3125 6.9375 -5 5 C-3.35 3.35 -1.7 1.7 0 0 Z " fill="#031629" transform="translate(229,144)"/>
<path d="M0 0 C5.61 0 11.22 0 17 0 C16.34 1.32 15.68 2.64 15 4 C14.01 4 13.02 4 12 4 C11.01 4.33 10.02 4.66 9 5 C6.99124558 4.72428861 4.98821313 4.39764263 3 4 C3 3.34 3 2.68 3 2 C2.01 2 1.02 2 0 2 C0 1.34 0 0.68 0 0 Z " fill="#FBF8EC" transform="translate(218,274)"/>
<path d="M0 0 C5 2 5 2 7 3 C7.3125 5.3125 7.3125 5.3125 7 8 C4.6167054 9.81883009 3.04181663 11 0 11 C0 7.37 0 3.74 0 0 Z " fill="#F2954A" transform="translate(343,236)"/>
<path d="M0 0 C3.3 0 6.6 0 10 0 C10.33 1.32 10.66 2.64 11 4 C4.07 4 -2.86 4 -10 4 C-9.67 3.34 -9.34 2.68 -9 2 C-6.36 2.33 -3.72 2.66 -1 3 C-0.67 2.01 -0.34 1.02 0 0 Z " fill="#0B1425" transform="translate(230,182)"/>
<path d="M0 0 C0.763125 0.5775 1.52625 1.155 2.3125 1.75 C2.3125 2.74 2.3125 3.73 2.3125 4.75 C-0.9875 5.08 -4.2875 5.41 -7.6875 5.75 C-8.0175 6.74 -8.3475 7.73 -8.6875 8.75 C-9.4375 6.5 -9.4375 6.5 -9.6875 3.75 C-6.87700871 0.1365112 -4.50376713 -2.09477541 0 0 Z " fill="#F79C77" transform="translate(166.6875,177.25)"/>
<path d="M0 0 C7.59 0 15.18 0 23 0 C23.33 0.66 23.66 1.32 24 2 C16.07809753 3.50242978 8.98902187 4.3345093 1 3 C0.67 2.01 0.34 1.02 0 0 Z " fill="#FDF6EB" transform="translate(284,277)"/>
<path d="M0 0 C6.6 0 13.2 0 20 0 C20 0.99 20 1.98 20 3 C19.01 2.67 18.02 2.34 17 2 C16.3709375 2.31582031 15.741875 2.63164062 15.09375 2.95703125 C12.57006913 4.21416332 11.26196301 4.08003926 8.5 3.6875 C7.37078125 3.53861328 7.37078125 3.53861328 6.21875 3.38671875 C4.11178366 3.01948342 2.06621118 2.54942434 0 2 C0 1.34 0 0.68 0 0 Z " fill="#FDF4E6" transform="translate(317,277)"/>
<path d="M0 0 C0.66 0.33 1.32 0.66 2 1 C2 4.96 2 8.92 2 13 C-0.475 12.01 -0.475 12.01 -3 11 C-3 8.69 -3 6.38 -3 4 C-2.34 4 -1.68 4 -1 4 C-0.67 2.68 -0.34 1.36 0 0 Z " fill="#EF9039" transform="translate(257,235)"/>
<path d="M0 0 C3.10640135 0.61421722 6.20962625 1.24322354 9.3125 1.875 C10.19357422 2.04902344 11.07464844 2.22304687 11.98242188 2.40234375 C13.25375977 2.66337891 13.25375977 2.66337891 14.55078125 2.9296875 C15.33106689 3.08679199 16.11135254 3.24389648 16.9152832 3.40576172 C19 4 19 4 22 6 C20.35 6 18.7 6 17 6 C16.34 9.3 15.68 12.6 15 16 C14.67 16 14.34 16 14 16 C13.83297544 11.65736138 13.87000003 8.79039366 16 5 C15.14728516 4.92652344 15.14728516 4.92652344 14.27734375 4.8515625 C9.28918871 4.36856919 4.77400422 3.52361837 0 2 C0 1.34 0 0.68 0 0 Z " fill="#034FC3" transform="translate(81,170)"/>
<path d="M0 0 C0.33 0 0.66 0 1 0 C1.19725192 4.39545262 1.38110072 8.79136686 1.5625 13.1875 C1.61857422 14.43337891 1.67464844 15.67925781 1.73242188 16.96289062 C1.78076172 18.16494141 1.82910156 19.36699219 1.87890625 20.60546875 C1.9260376 21.71043701 1.97316895 22.81540527 2.02172852 23.95385742 C2.00147534 26.79317029 1.66505747 29.24796085 1 32 C1.66 32 2.32 32 3 32 C2.25 36.75 2.25 36.75 0 39 C0 26.13 0 13.26 0 0 Z " fill="#878F98" transform="translate(300,135)"/>
<path d="M0 0 C0.33 0 0.66 0 1 0 C1.82038591 6.401594 2.12754513 12.61302501 2.0625 19.0625 C2.05798828 19.92810547 2.05347656 20.79371094 2.04882812 21.68554688 C2.03719913 23.79039539 2.01927073 25.89520758 2 28 C1.34 27.67 0.68 27.34 0 27 C-0.99088004 21.3682894 -1.15503496 15.83164331 -1.125 10.125 C-1.12886719 9.36703125 -1.13273437 8.6090625 -1.13671875 7.828125 C-1.12679967 2.25359933 -1.12679967 2.25359933 0 0 Z " fill="#8F9AA5" transform="translate(288,149)"/>
<path d="M0 0 C0.33 0 0.66 0 1 0 C1.19625099 3.95795086 1.38051982 7.91636935 1.5625 11.875 C1.61857422 13.00292969 1.67464844 14.13085938 1.73242188 15.29296875 C1.78076172 16.36933594 1.82910156 17.44570312 1.87890625 18.5546875 C1.9260376 19.54968262 1.97316895 20.54467773 2.02172852 21.56982422 C2 24 2 24 1 26 C-1.64 26 -4.28 26 -7 26 C-7 25.01 -7 24.02 -7 23 C-4.69 23 -2.38 23 0 23 C0 15.41 0 7.82 0 0 Z " fill="#41505D" transform="translate(228,159)"/>
<path d="M0 0 C1.32 0 2.64 0 4 0 C5.31626692 3.61973402 6 6.09567131 6 10 C4.35 10 2.7 10 1 10 C0.63720544 8.71073008 0.28503302 7.41846728 -0.0625 6.125 C-0.35833984 5.04605469 -0.35833984 5.04605469 -0.66015625 3.9453125 C-1 2 -1 2 0 0 Z " fill="#FCFCFB" transform="translate(295,176)"/>
<path d="M0 0 C1.485 0.99 1.485 0.99 3 2 C3 2.66 3 3.32 3 4 C5.97 4.495 5.97 4.495 9 5 C8.01 5.495 8.01 5.495 7 6 C6.67 14.25 6.34 22.5 6 31 C5.67 31 5.34 31 5 31 C5 23.08 5 15.16 5 7 C3.68 6.34 2.36 5.68 1 5 C0.25 2.375 0.25 2.375 0 0 Z " fill="#3B4451" transform="translate(164,151)"/>
<path d="M0 0 C2 3.75 2 3.75 2 6 C3.32 6.33 4.64 6.66 6 7 C5.34 8.65 4.68 10.3 4 12 C0.17475764 10.549046 -1.19090966 8.61818068 -3 5 C-3 4.34 -3 3.68 -3 3 C-2.34 3 -1.68 3 -1 3 C-0.67 2.01 -0.34 1.02 0 0 Z " fill="#0F182B" transform="translate(88,96)"/>
<path d="M0 0 C0.66 0.66 1.32 1.32 2 2 C1.34 3.32 0.68 4.64 0 6 C5.28 5.01 10.56 4.02 16 3 C15.67 3.99 15.34 4.98 15 6 C13.10507994 6.33848652 11.20901534 6.67056911 9.3125 7 C8.25675781 7.185625 7.20101563 7.37125 6.11328125 7.5625 C3.35095938 7.95068074 0.78257957 8.08259976 -2 8 C-1.47731534 5.23723823 -0.89130413 2.6739124 0 0 Z " fill="#63707D" transform="translate(303,167)"/>
<path d="M0 0 C0 1.32 0 2.64 0 4 C-3.96 4.66 -7.92 5.32 -12 6 C-11.67 4.68 -11.34 3.36 -11 2 C-3.375 0 -3.375 0 0 0 Z " fill="#C1C9D1" transform="translate(323,149)"/>
<path d="M0 0 C0 0.99 0 1.98 0 3 C-0.99 3 -1.98 3 -3 3 C-3 3.66 -3 4.32 -3 5 C-4.65 5 -6.3 5 -8 5 C-8 3.02 -8 1.04 -8 -1 C-4.37673261 -2.2077558 -3.35853631 -1.54311128 0 0 Z " fill="#F0A063" transform="translate(364,240)"/>
<path d="M0 0 C0.33 0 0.66 0 1 0 C1.30071865 7.55137932 0.42625566 14.58856436 -1 22 C-1.33 22 -1.66 22 -2 22 C-2.05434116 19.4580411 -2.0938339 16.91726318 -2.125 14.375 C-2.14175781 13.66214844 -2.15851563 12.94929687 -2.17578125 12.21484375 C-2.21684602 7.7387836 -1.69086567 4.22050722 0 0 Z " fill="#E7E9EA" transform="translate(291,152)"/>
<path d="M0 0 C2.97 0 5.94 0 9 0 C9 1.65 9 3.3 9 5 C6.03 5 3.06 5 0 5 C0 3.35 0 1.7 0 0 Z " fill="#F09E5D" transform="translate(324,239)"/>
<path d="M0 0 C0.99 0.33 1.98 0.66 3 1 C3.73046875 3.06640625 3.73046875 3.06640625 4.1875 5.5625 C4.34605469 6.38878906 4.50460938 7.21507813 4.66796875 8.06640625 C4.77753906 8.70449219 4.88710937 9.34257812 5 10 C4.401875 9.79375 3.80375 9.5875 3.1875 9.375 C0.71549154 8.69328085 0.71549154 8.69328085 -2 11 C-1 3.57142857 -1 3.57142857 0 0 Z " fill="#1462D0" transform="translate(107,119)"/>
<path d="M0 0 C0.66 0 1.32 0 2 0 C2 4.62 2 9.24 2 14 C1.34 13.67 0.68 13.34 0 13 C0 12.01 0 11.02 0 10 C-0.66 10 -1.32 10 -2 10 C-2 8.02 -2 6.04 -2 4 C-1.34 4 -0.68 4 0 4 C0 2.68 0 1.36 0 0 Z " fill="#F18536" transform="translate(353,235)"/>
<path d="M0 0 C1.32 0.66 2.64 1.32 4 2 C3.34 5.63 2.68 9.26 2 13 C1.67 13 1.34 13 1 13 C0.87625 12.21625 0.7525 11.4325 0.625 10.625 C0.20882007 7.85942178 0.20882007 7.85942178 -2 6 C-1.44444444 1.44444444 -1.44444444 1.44444444 0 0 Z " fill="#061629" transform="translate(298,126)"/>
<path d="M0 0 C2.97 0.99 5.94 1.98 9 3 C9 4.98 9 6.96 9 9 C4.71930097 7.41455592 2.70478088 4.5312417 0 1 C0 0.67 0 0.34 0 0 Z " fill="#DD7256" transform="translate(99,110)"/>
<path d="M0 0 C0.33 0 0.66 0 1 0 C1.33 1.98 1.66 3.96 2 6 C2.33 6 2.66 6 3 6 C3 8.97 3 11.94 3 15 C2.34 15 1.68 15 1 15 C1 16.98 1 18.96 1 21 C0.67 21 0.34 21 0 21 C0 14.07 0 7.14 0 0 Z " fill="#F1BB8D" transform="translate(247,231)"/>
<path d="M0 0 C-1.12451727 2.9719385 -2.22293791 5.33440687 -4 8 C-5.9375 7.6875 -5.9375 7.6875 -8 7 C-8.33 6.01 -8.66 5.02 -9 4 C-2.25 0 -2.25 0 0 0 Z " fill="#071425" transform="translate(316,99)"/>
<path d="M0 0 C5.94 0 11.88 0 18 0 C17.67 0.66 17.34 1.32 17 2 C11.27461084 3.26134052 5.71403464 3.1179633 0 2 C0 1.34 0 0.68 0 0 Z " fill="#F1F6F8" transform="translate(43,274)"/>
<path d="M0 0 C4.62 0 9.24 0 14 0 C13 3 13 3 11.375 3.8125 C7.92910255 4.08454454 5.23462666 3.13810938 2 2 C1.34 1.34 0.68 0.68 0 0 Z " fill="#F0F6F9" transform="translate(156,274)"/>
<path d="M0 0 C0 3 0 3 -1.53125 4.60546875 C-2.1809375 5.12753906 -2.830625 5.64960937 -3.5 6.1875 C-4.1496875 6.71730469 -4.799375 7.24710937 -5.46875 7.79296875 C-5.9740625 8.19128906 -6.479375 8.58960937 -7 9 C-7.33 7.02 -7.66 5.04 -8 3 C-5.36 2.01 -2.72 1.02 0 0 Z " fill="#E2714E" transform="translate(302,110)"/>
<path d="M0 0 C0.33 0 0.66 0 1 0 C1.76681614 10.68430493 1.76681614 10.68430493 -0.11328125 13.91015625 C-1.5 15.25 -1.5 15.25 -4 17 C-3.49526907 14.72871083 -2.89123344 12.75687476 -1.9375 10.625 C-0.86024217 7.60867807 -0.92933048 5.18012827 -1 2 C-0.67 1.34 -0.34 0.68 0 0 Z " fill="#FCF4E8" transform="translate(382,259)"/>
<path d="M0 0 C4.51617599 -0.07654536 8.59085217 -0.10228696 13 1 C12.67 1.66 12.34 2.32 12 3 C10.35 2.67 8.7 2.34 7 2 C7 2.66 7 3.32 7 4 C4.69 3.67 2.38 3.34 0 3 C0 2.01 0 1.02 0 0 Z " fill="#EDA469" transform="translate(366,240)"/>
<path d="M0 0 C0.99 0.33 1.98 0.66 3 1 C2.34 1 1.68 1 1 1 C0.690625 1.639375 0.38125 2.27875 0.0625 2.9375 C-1 5 -1 5 -2 6 C-3.99958364 6.04080783 -6.00045254 6.04254356 -8 6 C-8.66 4.68 -9.32 3.36 -10 2 C-8.906875 2.226875 -7.81375 2.45375 -6.6875 2.6875 C-3.09468727 3.40146383 -3.09468727 3.40146383 -1.0625 1.5625 C-0.711875 1.046875 -0.36125 0.53125 0 0 Z " fill="#E9EBEB" transform="translate(234,150)"/>
<path d="M0 0 C1.32 0.66 2.64 1.32 4 2 C4 2.99 4 3.98 4 5 C3.278125 4.731875 2.55625 4.46375 1.8125 4.1875 C-1.26390537 3.65105845 -1.26390537 3.65105845 -3.8125 6.4375 C-4.534375 7.283125 -5.25625 8.12875 -6 9 C-5.4409112 5.75728494 -4.5867822 4.06942576 -2 2 C-1.34 2 -0.68 2 0 2 C0 1.34 0 0.68 0 0 Z " fill="#525A63" transform="translate(172,142)"/>
<path d="M0 0 C0.66 0.33 1.32 0.66 2 1 C1.45859375 1.79664062 1.45859375 1.79664062 0.90625 2.609375 C0.4421875 3.31578125 -0.021875 4.0221875 -0.5 4.75 C-0.9640625 5.44609375 -1.428125 6.1421875 -1.90625 6.859375 C-3.30333102 9.19301806 -3.30333102 9.19301806 -3 13 C-4.32 12.34 -5.64 11.68 -7 11 C-6.02262231 9.35310365 -5.0430468 7.70751146 -4.0625 6.0625 C-3.51722656 5.14597656 -2.97195313 4.22945313 -2.41015625 3.28515625 C-1 1 -1 1 0 0 Z " fill="#576370" transform="translate(292,120)"/>
<path d="M0 0 C0.99 0 1.98 0 3 0 C3 2.31 3 4.62 3 7 C2.01 7 1.02 7 0 7 C0 6.34 0 5.68 0 5 C-0.66 5 -1.32 5 -2 5 C-2 4.01 -2 3.02 -2 2 C-1.34 2 -0.68 2 0 2 C0 1.34 0 0.68 0 0 Z " fill="#F3A764" transform="translate(215,238)"/>
<path d="M0 0 C4.29 0.33 8.58 0.66 13 1 C12.34 1.66 11.68 2.32 11 3 C9.68 3 8.36 3 7 3 C6.67 3.66 6.34 4.32 6 5 C5.34 4.67 4.68 4.34 4 4 C4 3.34 4 2.68 4 2 C2.68 2 1.36 2 0 2 C0 1.34 0 0.68 0 0 Z " fill="#F0F6F7" transform="translate(21,273)"/>
<path d="M0 0 C0.33 0 0.66 0 1 0 C1.33 5.61 1.66 11.22 2 17 C-1.41794232 12.44274358 -1.2800783 11.63707547 -0.6875 6.25 C-0.56761719 5.07953125 -0.44773437 3.9090625 -0.32421875 2.703125 C-0.21722656 1.81109375 -0.11023438 0.9190625 0 0 Z " fill="#556271" transform="translate(326,149)"/>
<path d="M0 0 C1.98 0.99 1.98 0.99 4 2 C4 3.65 4 5.3 4 7 C2.02 7.99 2.02 7.99 0 9 C0 6.03 0 3.06 0 0 Z " fill="#F28F37" transform="translate(346,237)"/>
<path d="M0 0 C0.33 0 0.66 0 1 0 C1 3.63 1 7.26 1 11 C0.01 10.67 -0.98 10.34 -2 10 C-2 7.69 -2 5.38 -2 3 C-1.34 3 -0.68 3 0 3 C0 2.01 0 1.02 0 0 Z " fill="#F3C29A" transform="translate(256,236)"/>
<path d="M0 0 C0.53625 0.350625 1.0725 0.70125 1.625 1.0625 C4.73274763 2.28924249 6.79431703 1.72856431 10 1 C10 1.99 10 2.98 10 4 C9 5 9 5 6.125 5.25 C3 5 3 5 1.125 3.625 C0 2 0 2 0 0 Z " fill="#F0F2F2" transform="translate(166,151)"/>
<path d="M0 0 C3.81936528 1.55603771 6.26044438 3.95604931 9 7 C9 7.66 9 8.32 9 9 C5.18063472 7.44396229 2.73955562 5.04395069 0 2 C0 1.34 0 0.68 0 0 Z " fill="#060E1B" transform="translate(230,140)"/>
<path d="M0 0 C-1.55603771 3.81936528 -3.95604931 6.26044438 -7 9 C-7.66 9 -8.32 9 -9 9 C-7.45665977 5.21180126 -4.44676575 0 0 0 Z " fill="#191F26" transform="translate(171,140)"/>
<path d="M0 0 C1.32 0.66 2.64 1.32 4 2 C3.67 3.32 3.34 4.64 3 6 C2.67 5.01 2.34 4.02 2 3 C0.35 4.32 -1.3 5.64 -3 7 C-2.25 2.25 -2.25 2.25 0 0 Z " fill="#0248B6" transform="translate(108,127)"/>
<path d="M0 0 C-0.99 1.485 -0.99 1.485 -2 3 C-5.625 3.1875 -5.625 3.1875 -9 3 C-9.33 2.34 -9.66 1.68 -10 1 C-6.78548731 -0.60725635 -3.56387464 -0.05748185 0 0 Z " fill="#1C2536" transform="translate(169,182)"/>
<path d="M0 0 C0.99 0.33 1.98 0.66 3 1 C0.69 3.31 -1.62 5.62 -4 8 C-4.66 7.34 -5.32 6.68 -6 6 C-4.02 4.02 -2.04 2.04 0 0 Z " fill="#DFE2E2" transform="translate(167,139)"/>
<path d="M0 0 C2.64 0 5.28 0 8 0 C8.33 1.32 8.66 2.64 9 4 C3.46153846 3.38461538 3.46153846 3.38461538 1.125 1.4375 C0.75375 0.963125 0.3825 0.48875 0 0 Z " fill="#2F414F" transform="translate(172,182)"/>
<path d="M0 0 C2.64 0 5.28 0 8 0 C8 0.66 8 1.32 8 2 C7.01 2.33 6.02 2.66 5 3 C4.34 2.67 3.68 2.34 3 2 C3 2.66 3 3.32 3 4 C1 3 1 3 0 0 Z " fill="#F1F6F7" transform="translate(98,274)"/>
<path d="M0 0 C2.31 0 4.62 0 7 0 C7 0.66 7 1.32 7 2 C4.36 2.33 1.72 2.66 -1 3 C-0.67 2.01 -0.34 1.02 0 0 Z " fill="#F1F7F9" transform="translate(109,274)"/>
<path d="M0 0 C0.33 0 0.66 0 1 0 C1.1953125 2.05078125 1.390625 4.1015625 1.5859375 6.15234375 C1.72257812 6.76207031 1.85921875 7.37179688 2 8 C2.66 8.33 3.32 8.66 4 9 C2.02 9 0.04 9 -2 9 C-2 8.34 -2 7.68 -2 7 C-1.34 7 -0.68 7 0 7 C0 4.69 0 2.38 0 0 Z " fill="#0966E0" transform="translate(105,168)"/>
<path d="M0 0 C0 3 0 3 -1.3125 4.38671875 C-2.875 5.59114583 -4.4375 6.79557292 -6 8 C-5.65120368 4.74456771 -4.97866739 3.98126893 -2.4375 1.75 C-1.633125 1.1725 -0.82875 0.595 0 0 Z " fill="#1A2B3D" transform="translate(239,132)"/>
<path d="M0 0 C0.99 0 1.98 0 3 0 C3 1.98 3 3.96 3 6 C2.01 5.67 1.02 5.34 0 5 C0 3.35 0 1.7 0 0 Z " fill="#62AAEC" transform="translate(164,239)"/>
<path d="M0 0 C2.475 0.99 2.475 0.99 5 2 C4.67 4.31 4.34 6.62 4 9 C3.67 9 3.34 9 3 9 C2.87625 8.2575 2.7525 7.515 2.625 6.75 C2.04513299 4.19858515 1.26291261 2.2732427 0 0 Z " fill="#F8EDD4" transform="translate(347,236)"/>
<path d="M0 0 C1.98 0.495 1.98 0.495 4 1 C3.67 2.65 3.34 4.3 3 6 C1.68 5.01 0.36 4.02 -1 3 C-0.67 2.01 -0.34 1.02 0 0 Z " fill="#0D2131" transform="translate(225,148)"/>
</svg>
